<svg xmlns="http://www.w3.org/2000/svg" xmlns:xlink="http://www.w3.org/1999/xlink" width="1024" viewBox="0 0 768 767.999994" height="1024" preserveAspectRatio="xMidYMid meet"><defs><clipPath id="f658639fdc"><path d="M 227 672 L 541 672 L 541 757.679688 L 227 757.679688 Z M 227 672 " clip-rule="nonzero"></path></clipPath><clipPath id="7a3365511d"><path d="M 147 739 L 621 739 L 621 757.679688 L 147 757.679688 Z M 147 739 " clip-rule="nonzero"></path></clipPath></defs><path fill="#ffb400" d="M 747.453125 621.3125 L 20.160156 621.3125 C 15.613281 621.3125 11.066406 617.902344 11.066406 612.222656 L 11.066406 146.300781 C 11.066406 123.570312 30.386719 104.253906 54.25 104.253906 L 529.265625 104.253906 C 533.8125 104.253906 538.355469 107.660156 538.355469 113.34375 C 538.355469 117.890625 534.945312 122.433594 529.265625 122.433594 L 54.25 122.433594 C 40.613281 122.433594 29.25 133.796875 29.25 147.433594 L 29.25 604.265625 L 738.363281 604.265625 L 738.363281 147.433594 C 738.363281 133.796875 727 122.433594 713.363281 122.433594 L 656.542969 122.433594 C 651.996094 122.433594 647.449219 119.027344 647.449219 113.34375 C 647.449219 107.660156 651.996094 104.253906 656.542969 104.253906 L 713.363281 104.253906 C 737.226562 104.253906 756.542969 123.570312 756.542969 147.433594 L 756.542969 613.359375 C 755.40625 617.902344 752 621.3125 747.453125 621.3125 Z M 747.453125 621.3125 " fill-opacity="1" fill-rule="nonzero"></path><g clip-path="url(#f658639fdc)"><path fill="#ffb400" d="M 531.539062 757.679688 L 236.074219 757.679688 C 232.664062 757.679688 230.390625 755.410156 228.121094 753.136719 C 226.984375 750.863281 226.984375 747.453125 228.121094 744.042969 L 273.574219 675.859375 C 274.710938 673.585938 278.121094 672.453125 280.394531 672.453125 L 486.082031 672.453125 C 489.492188 672.453125 491.765625 673.585938 492.898438 675.859375 L 538.355469 744.042969 C 540.628906 746.316406 540.628906 749.726562 538.355469 753.136719 C 537.21875 755.410156 533.8125 757.679688 531.539062 757.679688 Z M 250.847656 740.636719 L 514.492188 740.636719 L 480.398438 689.496094 L 284.9375 689.496094 Z M 250.847656 740.636719 " fill-opacity="1" fill-rule="nonzero"></path></g><g clip-path="url(#7a3365511d)"><path fill="#ffb400" d="M 611.085938 757.679688 L 156.527344 757.679688 C 151.980469 757.679688 147.433594 754.273438 147.433594 748.589844 C 147.433594 744.042969 150.84375 739.5 156.527344 739.5 L 611.085938 739.5 C 615.632812 739.5 620.175781 742.90625 620.175781 748.589844 C 619.039062 754.273438 615.632812 757.679688 611.085938 757.679688 Z M 611.085938 757.679688 " fill-opacity="1" fill-rule="nonzero"></path></g><path fill="#ffb400" d="M 713.363281 689.496094 L 54.25 689.496094 C 30.386719 689.496094 11.066406 670.179688 11.066406 646.3125 L 11.066406 612.222656 C 11.066406 607.675781 14.476562 604.265625 20.160156 604.265625 L 747.453125 604.265625 C 752 604.265625 756.542969 607.675781 756.542969 613.359375 L 756.542969 647.449219 C 755.40625 670.179688 736.089844 689.496094 713.363281 689.496094 Z M 28.113281 621.3125 L 28.113281 646.3125 C 28.113281 659.949219 39.476562 671.316406 53.113281 671.316406 L 712.226562 671.316406 C 725.863281 671.316406 737.226562 659.949219 737.226562 646.3125 L 737.226562 621.3125 Z M 28.113281 621.3125 " fill-opacity="1" fill-rule="nonzero"></path><path fill="#ffb400" d="M 303.121094 416.761719 C 299.710938 416.761719 296.304688 414.488281 295.167969 411.078125 C 294.03125 407.671875 295.167969 403.125 298.574219 401.988281 C 380.398438 349.714844 423.578125 290.621094 438.351562 266.757812 C 439.488281 264.484375 441.761719 263.347656 444.035156 263.347656 C 446.308594 263.347656 449.71875 264.484375 450.851562 265.621094 C 461.082031 275.847656 471.308594 286.074219 475.855469 291.757812 C 476.992188 292.894531 478.128906 294.03125 478.128906 296.304688 C 484.945312 332.667969 467.898438 364.488281 429.261719 387.214844 C 380.398438 415.625 306.53125 416.761719 303.121094 416.761719 C 304.257812 416.761719 304.257812 416.761719 303.121094 416.761719 Z M 447.445312 283.804688 C 430.398438 308.804688 395.171875 354.261719 334.941406 397.441406 C 359.941406 394.035156 395.171875 387.214844 421.308594 371.304688 C 442.898438 358.804688 467.898438 334.941406 462.21875 299.710938 C 458.808594 296.304688 453.125 290.621094 447.445312 283.804688 Z M 447.445312 283.804688 " fill-opacity="1" fill-rule="nonzero"></path><path fill="#ffb400" d="M 303.121094 416.761719 C 301.984375 416.761719 299.710938 416.761719 298.578125 415.625 C 296.304688 414.488281 295.167969 411.078125 295.167969 407.671875 C 295.167969 406.535156 296.304688 369.03125 306.53125 329.257812 C 325.851562 257.664062 366.761719 222.4375 417.898438 231.527344 C 419.035156 231.527344 421.308594 232.664062 422.445312 233.800781 C 425.851562 237.210938 431.535156 242.894531 438.351562 249.710938 L 451.988281 263.347656 C 454.261719 265.621094 455.398438 270.167969 453.125 273.574219 C 437.214844 297.441406 392.898438 359.941406 308.804688 414.488281 C 306.53125 416.761719 305.394531 416.761719 303.121094 416.761719 Z M 401.988281 248.574219 C 354.257812 248.574219 332.667969 301.984375 323.578125 334.941406 C 317.894531 356.53125 314.484375 378.125 313.347656 391.761719 C 380.398438 346.304688 417.898438 296.304688 434.945312 271.304688 L 425.851562 262.210938 C 420.171875 256.53125 415.625 251.984375 412.214844 248.574219 C 408.808594 248.574219 404.261719 248.574219 401.988281 248.574219 Z M 314.484375 332.667969 Z M 314.484375 332.667969 " fill-opacity="1" fill-rule="nonzero"></path><path fill="#ffb400" d="M 516.765625 267.894531 C 514.492188 267.894531 512.21875 266.757812 511.082031 265.621094 L 446.308594 200.847656 C 442.898438 197.4375 442.898438 192.890625 446.308594 189.480469 C 501.992188 122.433594 608.8125 9.929688 690.632812 13.339844 C 695.179688 13.339844 698.589844 16.75 698.589844 21.296875 C 701.996094 103.117188 589.492188 209.9375 522.445312 265.621094 C 520.171875 267.894531 519.039062 267.894531 516.765625 267.894531 Z M 463.355469 195.164062 L 516.765625 248.574219 C 617.902344 162.207031 676.996094 83.796875 681.542969 30.386719 C 628.132812 34.933594 549.71875 94.023438 463.355469 195.164062 Z M 463.355469 195.164062 " fill-opacity="1" fill-rule="nonzero"></path><path fill="#ffb400" d="M 471.308594 304.257812 C 469.035156 304.257812 466.761719 303.121094 465.625 301.984375 L 409.941406 247.4375 C 406.535156 244.027344 406.535156 239.484375 408.808594 236.074219 C 408.808594 236.074219 423.578125 216.753906 445.171875 189.480469 C 446.308594 187.210938 448.582031 186.074219 450.855469 186.074219 C 453.125 186.074219 455.398438 187.210938 457.671875 188.34375 L 522.445312 253.121094 C 523.582031 254.257812 524.71875 257.664062 524.71875 259.9375 C 524.71875 262.210938 523.582031 264.484375 521.308594 265.621094 C 495.171875 288.347656 475.855469 301.984375 474.71875 301.984375 C 474.71875 304.257812 472.445312 304.257812 471.308594 304.257812 Z M 426.988281 240.621094 L 471.308594 284.941406 C 478.128906 280.394531 489.492188 271.304688 503.128906 258.800781 L 451.988281 207.664062 C 440.625 222.4375 431.535156 233.800781 426.988281 240.621094 Z M 426.988281 240.621094 " fill-opacity="1" fill-rule="nonzero"></path><path fill="#ffb400" d="M 645.175781 553.128906 C 641.769531 553.128906 258.800781 553.128906 258.800781 553.128906 C 216.753906 553.128906 182.664062 519.039062 182.664062 475.855469 C 182.664062 433.808594 216.753906 398.578125 258.800781 398.578125 L 304.257812 398.578125 C 308.804688 398.578125 313.347656 401.988281 313.347656 407.671875 C 313.347656 412.214844 309.941406 416.761719 304.257812 416.761719 L 258.800781 416.761719 C 225.847656 416.761719 199.710938 444.035156 199.710938 475.855469 C 199.710938 508.808594 226.984375 534.945312 258.800781 534.945312 L 584.949219 534.945312 C 619.039062 534.945312 637.222656 534.945312 645.175781 536.082031 C 665.632812 536.082031 681.542969 519.039062 681.542969 499.71875 C 681.542969 480.398438 664.496094 463.355469 645.175781 463.355469 L 554.265625 463.355469 C 524.71875 463.355469 500.855469 439.488281 500.855469 408.808594 C 500.855469 379.261719 524.71875 354.261719 555.402344 354.261719 L 646.3125 354.261719 C 666.769531 354.261719 682.679688 337.214844 682.679688 316.757812 C 682.679688 296.304688 665.632812 280.394531 646.3125 280.394531 L 589.492188 280.394531 C 584.949219 280.394531 580.402344 276.984375 580.402344 271.304688 C 580.402344 266.757812 583.8125 262.210938 589.492188 262.210938 L 646.3125 262.210938 C 675.859375 262.210938 700.859375 286.074219 700.859375 316.757812 C 700.859375 346.304688 676.996094 371.304688 647.449219 371.304688 L 556.539062 371.304688 C 536.082031 371.304688 519.039062 388.351562 519.039062 407.671875 C 519.039062 428.125 536.082031 444.035156 555.402344 444.035156 L 646.3125 444.035156 C 675.859375 444.035156 700.859375 467.898438 700.859375 498.582031 C 698.589844 529.265625 674.722656 553.128906 645.175781 553.128906 Z M 645.175781 553.128906 " fill-opacity="1" fill-rule="nonzero"></path><path fill="#ffb400" d="M 122.433594 234.9375 L 76.980469 234.9375 C 65.613281 234.9375 56.523438 225.847656 56.523438 214.484375 L 56.523438 169.027344 C 56.523438 157.664062 65.613281 148.570312 76.980469 148.570312 L 122.433594 148.570312 C 133.796875 148.570312 142.890625 157.664062 142.890625 169.027344 L 142.890625 214.484375 C 141.753906 225.847656 132.660156 234.9375 122.433594 234.9375 Z M 76.980469 166.753906 C 75.84375 166.753906 74.707031 167.890625 74.707031 169.027344 L 74.707031 214.484375 C 74.707031 215.621094 75.84375 216.753906 76.980469 216.753906 L 122.433594 216.753906 C 123.570312 216.753906 124.707031 215.621094 124.707031 214.484375 L 124.707031 169.027344 C 124.707031 167.890625 123.570312 166.753906 122.433594 166.753906 Z M 76.980469 166.753906 " fill-opacity="1" fill-rule="nonzero"></path><path fill="#ffb400" d="M 122.433594 348.578125 L 76.980469 348.578125 C 65.613281 348.578125 56.523438 339.488281 56.523438 328.121094 L 56.523438 282.667969 C 56.523438 271.304688 65.613281 262.210938 76.980469 262.210938 L 122.433594 262.210938 C 133.796875 262.210938 142.890625 271.304688 142.890625 282.667969 L 142.890625 328.121094 C 141.753906 339.488281 132.660156 348.578125 122.433594 348.578125 Z M 76.980469 280.394531 C 75.84375 280.394531 74.707031 281.53125 74.707031 282.667969 L 74.707031 328.121094 C 74.707031 329.257812 75.84375 330.394531 76.980469 330.394531 L 122.433594 330.394531 C 123.570312 330.394531 124.707031 329.257812 124.707031 328.121094 L 124.707031 282.667969 C 124.707031 281.53125 123.570312 280.394531 122.433594 280.394531 Z M 76.980469 280.394531 " fill-opacity="1" fill-rule="nonzero"></path><path fill="#ffb400" d="M 122.433594 462.21875 L 76.980469 462.21875 C 65.613281 462.21875 56.523438 453.125 56.523438 441.761719 L 56.523438 396.304688 C 56.523438 384.941406 65.613281 375.851562 76.980469 375.851562 L 122.433594 375.851562 C 133.796875 375.851562 142.890625 384.941406 142.890625 396.304688 L 142.890625 441.761719 C 141.753906 453.125 132.660156 462.21875 122.433594 462.21875 Z M 76.980469 394.035156 C 75.84375 394.035156 74.707031 395.171875 74.707031 396.304688 L 74.707031 441.761719 C 74.707031 442.898438 75.84375 444.035156 76.980469 444.035156 L 122.433594 444.035156 C 123.570312 444.035156 124.707031 442.898438 124.707031 441.761719 L 124.707031 396.304688 C 124.707031 395.171875 123.570312 394.035156 122.433594 394.035156 Z M 76.980469 394.035156 " fill-opacity="1" fill-rule="nonzero"></path><path fill="#ffb400" d="M 122.433594 575.859375 L 76.980469 575.859375 C 65.613281 575.859375 56.523438 566.765625 56.523438 555.402344 L 56.523438 509.945312 C 56.523438 498.582031 65.613281 489.492188 76.980469 489.492188 L 122.433594 489.492188 C 133.796875 489.492188 142.890625 498.582031 142.890625 509.945312 L 142.890625 555.402344 C 141.753906 566.765625 132.660156 575.859375 122.433594 575.859375 Z M 76.980469 507.671875 C 75.84375 507.671875 74.707031 508.808594 74.707031 509.945312 L 74.707031 555.402344 C 74.707031 556.539062 75.84375 557.675781 76.980469 557.675781 L 122.433594 557.675781 C 123.570312 557.675781 124.707031 556.539062 124.707031 555.402344 L 124.707031 509.945312 C 124.707031 508.808594 123.570312 507.671875 122.433594 507.671875 Z M 76.980469 507.671875 " fill-opacity="1" fill-rule="nonzero"></path><path fill="#ffb400" d="M 455.398438 75.84375 C 450.851562 75.84375 446.308594 72.433594 446.308594 66.75 L 446.308594 21.296875 C 446.308594 16.75 449.71875 12.203125 455.398438 12.203125 C 459.945312 12.203125 464.492188 15.613281 464.492188 21.296875 L 464.492188 66.75 C 464.492188 72.433594 459.945312 75.84375 455.398438 75.84375 Z M 455.398438 75.84375 " fill-opacity="1" fill-rule="nonzero"></path><path fill="#ffb400" d="M 478.128906 53.113281 L 432.671875 53.113281 C 428.125 53.113281 423.578125 49.707031 423.578125 44.023438 C 423.578125 39.476562 426.988281 34.933594 432.671875 34.933594 L 478.128906 34.933594 C 482.671875 34.933594 487.21875 38.339844 487.21875 44.023438 C 487.21875 49.707031 482.671875 53.113281 478.128906 53.113281 Z M 478.128906 53.113281 " fill-opacity="1" fill-rule="nonzero"></path><path fill="#ffb400" d="M 396.304688 45.160156 C 396.304688 45.757812 396.25 46.347656 396.132812 46.933594 C 396.015625 47.519531 395.84375 48.085938 395.613281 48.636719 C 395.386719 49.191406 395.105469 49.714844 394.773438 50.210938 C 394.441406 50.707031 394.066406 51.164062 393.644531 51.589844 C 393.222656 52.011719 392.761719 52.386719 392.265625 52.71875 C 391.769531 53.050781 391.246094 53.332031 390.695312 53.558594 C 390.144531 53.789062 389.574219 53.960938 388.988281 54.074219 C 388.402344 54.191406 387.8125 54.25 387.214844 54.25 C 386.617188 54.25 386.027344 54.191406 385.441406 54.074219 C 384.855469 53.960938 384.289062 53.789062 383.734375 53.558594 C 383.183594 53.332031 382.660156 53.050781 382.164062 52.71875 C 381.667969 52.386719 381.207031 52.011719 380.785156 51.589844 C 380.363281 51.164062 379.988281 50.707031 379.65625 50.210938 C 379.324219 49.714844 379.042969 49.191406 378.816406 48.636719 C 378.585938 48.085938 378.414062 47.519531 378.296875 46.933594 C 378.183594 46.347656 378.125 45.757812 378.125 45.160156 C 378.125 44.5625 378.183594 43.972656 378.296875 43.386719 C 378.414062 42.800781 378.585938 42.230469 378.816406 41.679688 C 379.042969 41.128906 379.324219 40.605469 379.65625 40.109375 C 379.988281 39.613281 380.363281 39.152344 380.785156 38.730469 C 381.207031 38.308594 381.667969 37.933594 382.164062 37.601562 C 382.660156 37.269531 383.183594 36.988281 383.734375 36.761719 C 384.289062 36.53125 384.855469 36.359375 385.441406 36.242188 C 386.027344 36.125 386.617188 36.066406 387.214844 36.066406 C 387.8125 36.066406 388.402344 36.125 388.988281 36.242188 C 389.574219 36.359375 390.144531 36.53125 390.695312 36.761719 C 391.246094 36.988281 391.769531 37.269531 392.265625 37.601562 C 392.761719 37.933594 393.222656 38.308594 393.644531 38.730469 C 394.066406 39.152344 394.441406 39.613281 394.773438 40.109375 C 395.105469 40.605469 395.386719 41.128906 395.613281 41.679688 C 395.84375 42.230469 396.015625 42.800781 396.132812 43.386719 C 396.25 43.972656 396.304688 44.5625 396.304688 45.160156 Z M 396.304688 45.160156 " fill-opacity="1" fill-rule="nonzero"></path><path fill="#ffb400" d="M 362.214844 45.160156 C 362.214844 45.757812 362.15625 46.347656 362.039062 46.933594 C 361.921875 47.519531 361.75 48.085938 361.523438 48.636719 C 361.292969 49.191406 361.015625 49.714844 360.683594 50.210938 C 360.351562 50.707031 359.972656 51.164062 359.550781 51.589844 C 359.128906 52.011719 358.671875 52.386719 358.175781 52.71875 C 357.675781 53.050781 357.152344 53.332031 356.601562 53.558594 C 356.050781 53.789062 355.480469 53.960938 354.898438 54.074219 C 354.3125 54.191406 353.71875 54.25 353.125 54.25 C 352.527344 54.25 351.933594 54.191406 351.351562 54.074219 C 350.765625 53.960938 350.195312 53.789062 349.644531 53.558594 C 349.09375 53.332031 348.570312 53.050781 348.074219 52.71875 C 347.574219 52.386719 347.117188 52.011719 346.695312 51.589844 C 346.273438 51.164062 345.894531 50.707031 345.5625 50.210938 C 345.234375 49.714844 344.953125 49.191406 344.722656 48.636719 C 344.496094 48.085938 344.324219 47.519531 344.207031 46.933594 C 344.089844 46.347656 344.03125 45.757812 344.03125 45.160156 C 344.03125 44.5625 344.089844 43.972656 344.207031 43.386719 C 344.324219 42.800781 344.496094 42.230469 344.722656 41.679688 C 344.953125 41.128906 345.234375 40.605469 345.5625 40.109375 C 345.894531 39.613281 346.273438 39.152344 346.695312 38.730469 C 347.117188 38.308594 347.574219 37.933594 348.074219 37.601562 C 348.570312 37.269531 349.09375 36.988281 349.644531 36.761719 C 350.195312 36.53125 350.765625 36.359375 351.351562 36.242188 C 351.933594 36.125 352.527344 36.066406 353.125 36.066406 C 353.71875 36.066406 354.3125 36.125 354.898438 36.242188 C 355.480469 36.359375 356.050781 36.53125 356.601562 36.761719 C 357.152344 36.988281 357.679688 37.269531 358.175781 37.601562 C 358.671875 37.933594 359.128906 38.308594 359.550781 38.730469 C 359.972656 39.152344 360.351562 39.613281 360.683594 40.109375 C 361.015625 40.605469 361.292969 41.128906 361.523438 41.679688 C 361.75 42.230469 361.921875 42.800781 362.039062 43.386719 C 362.15625 43.972656 362.214844 44.5625 362.214844 45.160156 Z M 362.214844 45.160156 " fill-opacity="1" fill-rule="nonzero"></path><path fill="#ffb400" d="M 316.757812 45.160156 C 316.757812 45.757812 316.699219 46.347656 316.582031 46.933594 C 316.46875 47.519531 316.296875 48.085938 316.066406 48.636719 C 315.839844 49.191406 315.558594 49.714844 315.226562 50.210938 C 314.894531 50.707031 314.519531 51.164062 314.097656 51.589844 C 313.671875 52.011719 313.214844 52.386719 312.71875 52.71875 C 312.222656 53.050781 311.699219 53.332031 311.144531 53.558594 C 310.59375 53.789062 310.027344 53.960938 309.441406 54.074219 C 308.855469 54.191406 308.265625 54.25 307.667969 54.25 C 307.070312 54.25 306.480469 54.191406 305.894531 54.074219 C 305.308594 53.960938 304.738281 53.789062 304.1875 53.558594 C 303.636719 53.332031 303.113281 53.050781 302.617188 52.71875 C 302.121094 52.386719 301.660156 52.011719 301.238281 51.589844 C 300.816406 51.164062 300.441406 50.707031 300.109375 50.210938 C 299.777344 49.714844 299.496094 49.191406 299.269531 48.636719 C 299.039062 48.085938 298.867188 47.519531 298.75 46.933594 C 298.632812 46.347656 298.574219 45.757812 298.578125 45.160156 C 298.574219 44.5625 298.632812 43.972656 298.75 43.386719 C 298.867188 42.800781 299.039062 42.230469 299.269531 41.679688 C 299.496094 41.128906 299.777344 40.605469 300.109375 40.109375 C 300.441406 39.613281 300.816406 39.152344 301.238281 38.730469 C 301.660156 38.308594 302.121094 37.933594 302.617188 37.601562 C 303.113281 37.269531 303.636719 36.988281 304.1875 36.761719 C 304.738281 36.53125 305.308594 36.359375 305.894531 36.242188 C 306.480469 36.125 307.070312 36.066406 307.667969 36.066406 C 308.265625 36.066406 308.855469 36.125 309.441406 36.242188 C 310.027344 36.359375 310.59375 36.53125 311.144531 36.761719 C 311.699219 36.988281 312.222656 37.269531 312.71875 37.601562 C 313.214844 37.933594 313.671875 38.308594 314.097656 38.730469 C 314.519531 39.152344 314.894531 39.613281 315.226562 40.109375 C 315.558594 40.605469 315.839844 41.128906 316.066406 41.679688 C 316.296875 42.230469 316.46875 42.800781 316.582031 43.386719 C 316.699219 43.972656 316.757812 44.5625 316.757812 45.160156 Z M 316.757812 45.160156 " fill-opacity="1" fill-rule="nonzero"></path><path fill="#ffb400" d="M 248.574219 45.160156 C 248.574219 45.757812 248.515625 46.347656 248.398438 46.933594 C 248.285156 47.519531 248.109375 48.085938 247.882812 48.636719 C 247.652344 49.191406 247.375 49.714844 247.042969 50.210938 C 246.710938 50.707031 246.335938 51.164062 245.910156 51.589844 C 245.488281 52.011719 245.03125 52.386719 244.535156 52.71875 C 244.039062 53.050781 243.515625 53.332031 242.960938 53.558594 C 242.410156 53.789062 241.84375 53.960938 241.257812 54.074219 C 240.671875 54.191406 240.082031 54.25 239.484375 54.25 C 238.886719 54.25 238.296875 54.191406 237.710938 54.074219 C 237.125 53.960938 236.554688 53.789062 236.003906 53.558594 C 235.453125 53.332031 234.929688 53.050781 234.433594 52.71875 C 233.9375 52.386719 233.476562 52.011719 233.054688 51.589844 C 232.632812 51.164062 232.257812 50.707031 231.925781 50.210938 C 231.59375 49.714844 231.3125 49.191406 231.085938 48.636719 C 230.855469 48.085938 230.683594 47.519531 230.566406 46.933594 C 230.449219 46.347656 230.390625 45.757812 230.390625 45.160156 C 230.390625 44.5625 230.449219 43.972656 230.566406 43.386719 C 230.683594 42.800781 230.855469 42.230469 231.085938 41.679688 C 231.3125 41.128906 231.59375 40.605469 231.925781 40.109375 C 232.257812 39.613281 232.632812 39.152344 233.054688 38.730469 C 233.476562 38.308594 233.9375 37.933594 234.433594 37.601562 C 234.929688 37.269531 235.453125 36.988281 236.003906 36.761719 C 236.554688 36.53125 237.125 36.359375 237.710938 36.242188 C 238.296875 36.125 238.886719 36.066406 239.484375 36.066406 C 240.082031 36.066406 240.671875 36.125 241.257812 36.242188 C 241.84375 36.359375 242.410156 36.53125 242.960938 36.761719 C 243.515625 36.988281 244.039062 37.269531 244.535156 37.601562 C 245.03125 37.933594 245.488281 38.308594 245.910156 38.730469 C 246.335938 39.152344 246.710938 39.613281 247.042969 40.109375 C 247.375 40.605469 247.652344 41.128906 247.882812 41.679688 C 248.109375 42.230469 248.285156 42.800781 248.398438 43.386719 C 248.515625 43.972656 248.574219 44.5625 248.574219 45.160156 Z M 248.574219 45.160156 " fill-opacity="1" fill-rule="nonzero"></path><path fill="#ffb400" d="M 207.664062 329.257812 L 190.617188 329.257812 C 186.074219 329.257812 181.527344 325.851562 181.527344 320.167969 C 181.527344 315.621094 184.9375 311.078125 190.617188 311.078125 L 207.664062 311.078125 C 212.210938 311.078125 216.753906 314.484375 216.753906 320.167969 C 215.617188 324.714844 212.210938 329.257812 207.664062 329.257812 Z M 207.664062 329.257812 " fill-opacity="1" fill-rule="nonzero"></path><path fill="#ffb400" d="M 264.484375 329.257812 L 247.4375 329.257812 C 242.894531 329.257812 238.347656 325.851562 238.347656 320.167969 C 238.347656 315.621094 241.757812 311.078125 247.4375 311.078125 L 264.484375 311.078125 C 269.03125 311.078125 273.574219 314.484375 273.574219 320.167969 C 272.4375 324.714844 269.03125 329.257812 264.484375 329.257812 Z M 264.484375 329.257812 " fill-opacity="1" fill-rule="nonzero"></path><path fill="#ffb400" d="M 226.984375 365.625 C 222.4375 365.625 217.890625 362.214844 217.890625 356.53125 L 217.890625 339.488281 C 217.890625 334.941406 221.300781 330.394531 226.984375 330.394531 C 231.527344 330.394531 236.074219 333.804688 236.074219 339.488281 L 236.074219 356.53125 C 236.074219 362.214844 231.527344 365.625 226.984375 365.625 Z M 226.984375 365.625 " fill-opacity="1" fill-rule="nonzero"></path><path fill="#ffb400" d="M 226.984375 308.804688 C 222.4375 308.804688 217.890625 305.394531 217.890625 299.710938 L 217.890625 282.667969 C 217.890625 278.121094 221.300781 273.574219 226.984375 273.574219 C 231.527344 273.574219 236.074219 276.984375 236.074219 282.667969 L 236.074219 299.710938 C 236.074219 305.394531 231.527344 308.804688 226.984375 308.804688 Z M 226.984375 308.804688 " fill-opacity="1" fill-rule="nonzero"></path><path fill="#ffb400" d="M 275.847656 204.253906 L 258.800781 204.253906 C 254.257812 204.253906 249.710938 200.847656 249.710938 195.164062 C 249.710938 190.617188 253.121094 186.074219 258.800781 186.074219 L 275.847656 186.074219 C 280.394531 186.074219 284.9375 189.480469 284.9375 195.164062 C 283.804688 199.710938 280.394531 204.253906 275.847656 204.253906 Z M 275.847656 204.253906 " fill-opacity="1" fill-rule="nonzero"></path><path fill="#ffb400" d="M 332.667969 204.253906 L 315.621094 204.253906 C 311.078125 204.253906 306.53125 200.847656 306.53125 195.164062 C 306.53125 190.617188 309.941406 186.074219 315.621094 186.074219 L 332.667969 186.074219 C 337.214844 186.074219 341.757812 189.480469 341.757812 195.164062 C 340.621094 199.710938 337.214844 204.253906 332.667969 204.253906 Z M 332.667969 204.253906 " fill-opacity="1" fill-rule="nonzero"></path><path fill="#ffb400" d="M 295.167969 240.621094 C 290.621094 240.621094 286.074219 237.210938 286.074219 231.527344 L 286.074219 214.484375 C 286.074219 209.9375 289.484375 205.390625 295.167969 205.390625 C 299.710938 205.390625 304.257812 208.800781 304.257812 214.484375 L 304.257812 231.527344 C 304.257812 237.210938 299.710938 240.621094 295.167969 240.621094 Z M 295.167969 240.621094 " fill-opacity="1" fill-rule="nonzero"></path><path fill="#ffb400" d="M 295.167969 183.800781 C 290.621094 183.800781 286.074219 180.390625 286.074219 174.707031 L 286.074219 157.664062 C 286.074219 153.117188 289.484375 148.570312 295.167969 148.570312 C 299.710938 148.570312 304.257812 151.980469 304.257812 157.664062 L 304.257812 174.707031 C 304.257812 180.390625 299.710938 183.800781 295.167969 183.800781 Z M 295.167969 183.800781 " fill-opacity="1" fill-rule="nonzero"></path></svg>