<svg xmlns="http://www.w3.org/2000/svg" xmlns:xlink="http://www.w3.org/1999/xlink" width="1024" viewBox="0 0 768 767.999994" height="1024" preserveAspectRatio="xMidYMid meet"><defs><clipPath id="1d9085a7f9"><path d="M 23.171875 34.207031 L 756.671875 34.207031 L 756.671875 767.707031 L 23.171875 767.707031 Z M 23.171875 34.207031 " clip-rule="nonzero"></path></clipPath></defs><g clip-path="url(#1d9085a7f9)"><path fill="#ffb400" d="M 733.75 229.953125 C 733.75 237.246094 727.824219 243.171875 720.53125 243.171875 L 711.742188 243.171875 C 711.675781 243.171875 711.609375 243.171875 711.546875 243.171875 C 711.480469 243.171875 711.480469 243.171875 711.414062 243.171875 L 651.308594 243.171875 C 647.53125 243.171875 643.953125 245.128906 641.800781 248.253906 L 617.644531 284.394531 L 593.484375 248.253906 C 591.402344 245.0625 587.753906 243.171875 583.976562 243.171875 L 514.886719 243.171875 C 507.59375 243.171875 501.667969 237.246094 501.667969 229.953125 L 501.667969 70.347656 C 501.667969 63.054688 507.59375 57.128906 514.886719 57.128906 L 720.53125 57.128906 C 727.824219 57.128906 733.75 63.054688 733.75 70.347656 Z M 468.457031 663.648438 C 463.960938 663.648438 459.859375 666.25 458.035156 670.289062 L 444.425781 699.917969 L 335.546875 699.917969 L 321.9375 670.289062 C 320.113281 666.25 316.011719 663.648438 311.519531 663.648438 L 79.761719 663.648438 L 79.761719 223.117188 C 79.761719 210.550781 89.917969 200.324219 102.355469 200.324219 L 106.328125 200.324219 L 106.328125 473.890625 C 106.328125 496.292969 124.496094 514.460938 146.898438 514.460938 L 418.964844 514.460938 C 441.367188 514.460938 459.535156 496.292969 459.535156 473.890625 L 459.535156 200.324219 L 478.746094 200.324219 L 478.746094 229.953125 C 478.746094 249.882812 494.960938 266.09375 514.886719 266.09375 L 577.855469 266.09375 L 608.136719 311.351562 C 610.285156 314.542969 613.800781 316.433594 617.644531 316.433594 C 621.484375 316.433594 625 314.542969 627.152344 311.351562 L 657.429688 266.09375 L 700.085938 266.09375 L 700.085938 663.648438 L 468.390625 663.648438 Z M 733.75 717.304688 C 733.75 732.476562 721.441406 744.785156 706.207031 744.785156 L 73.640625 744.785156 C 58.46875 744.785156 46.09375 732.414062 46.09375 717.304688 L 46.09375 686.570312 L 304.160156 686.570312 L 317.769531 716.132812 C 319.660156 720.234375 323.695312 722.839844 328.191406 722.839844 L 451.785156 722.839844 C 456.214844 722.839844 460.316406 720.234375 462.203125 716.132812 L 475.75 686.570312 L 733.75 686.570312 Z M 129.25 74.839844 C 129.25 65.074219 137.195312 57.128906 146.898438 57.128906 L 319.917969 57.128906 L 319.917969 133.253906 C 319.917969 155.589844 338.21875 173.820312 360.617188 173.820312 L 436.613281 173.820312 L 436.613281 473.890625 C 436.613281 483.59375 428.734375 491.539062 418.964844 491.539062 L 146.898438 491.539062 C 137.195312 491.539062 129.25 483.59375 129.25 473.890625 Z M 342.839844 73.34375 L 420.464844 150.898438 L 360.617188 150.898438 C 350.851562 150.898438 342.839844 143.019531 342.839844 133.253906 Z M 720.53125 34.207031 L 514.886719 34.207031 C 494.960938 34.207031 478.746094 50.421875 478.746094 70.347656 L 478.746094 177.402344 L 459.535156 177.402344 L 459.535156 163.46875 C 459.601562 163.078125 459.796875 162.75 459.796875 162.359375 C 459.796875 158.519531 457.90625 155.066406 454.976562 152.984375 L 339.519531 37.59375 C 338.542969 36.550781 337.371094 35.898438 336.132812 35.3125 C 335.808594 35.183594 335.417969 35.054688 335.09375 34.921875 C 334.117188 34.597656 333.136719 34.402344 332.097656 34.335938 C 331.902344 34.335938 331.640625 34.207031 331.378906 34.207031 L 146.898438 34.207031 C 124.496094 34.207031 106.328125 52.441406 106.328125 74.839844 L 106.328125 177.402344 L 102.355469 177.402344 C 77.222656 177.402344 56.839844 197.914062 56.839844 223.117188 L 56.839844 663.648438 L 34.632812 663.648438 C 28.316406 663.648438 23.171875 668.726562 23.171875 675.109375 L 23.171875 717.304688 C 23.171875 745.109375 45.769531 767.707031 73.574219 767.707031 L 706.207031 767.707031 C 734.074219 767.707031 756.671875 745.109375 756.671875 717.304688 L 756.671875 675.109375 C 756.671875 668.726562 751.527344 663.648438 745.210938 663.648438 L 723.007812 663.648438 L 723.007812 265.898438 C 741.761719 264.597656 756.671875 249.035156 756.671875 229.953125 L 756.671875 70.347656 C 756.671875 50.421875 740.457031 34.207031 720.53125 34.207031 " fill-opacity="1" fill-rule="nonzero"></path></g><path fill="#ffb400" d="M 173.273438 156.371094 L 284.363281 156.371094 C 287.554688 156.371094 290.09375 153.832031 290.09375 150.640625 C 290.09375 147.515625 287.554688 144.910156 284.363281 144.910156 L 173.273438 144.910156 C 170.082031 144.910156 167.542969 147.515625 167.542969 150.640625 C 167.542969 153.832031 170.082031 156.371094 173.273438 156.371094 " fill-opacity="1" fill-rule="nonzero"></path><path fill="#ffb400" d="M 173.273438 304.777344 L 392.65625 304.777344 C 395.78125 304.777344 398.386719 302.238281 398.386719 299.046875 C 398.386719 295.921875 395.78125 293.316406 392.65625 293.316406 L 173.273438 293.316406 C 170.082031 293.316406 167.542969 295.921875 167.542969 299.046875 C 167.542969 302.238281 170.082031 304.777344 173.273438 304.777344 " fill-opacity="1" fill-rule="nonzero"></path><path fill="#ffb400" d="M 173.273438 205.859375 L 392.65625 205.859375 C 395.78125 205.859375 398.386719 203.320312 398.386719 200.128906 C 398.386719 196.9375 395.78125 194.398438 392.65625 194.398438 L 173.273438 194.398438 C 170.082031 194.398438 167.542969 196.9375 167.542969 200.128906 C 167.542969 203.320312 170.082031 205.859375 173.273438 205.859375 " fill-opacity="1" fill-rule="nonzero"></path><path fill="#ffb400" d="M 173.273438 354.265625 L 392.65625 354.265625 C 395.78125 354.265625 398.386719 351.660156 398.386719 348.535156 C 398.386719 345.34375 395.78125 342.804688 392.65625 342.804688 L 173.273438 342.804688 C 170.082031 342.804688 167.542969 345.34375 167.542969 348.535156 C 167.542969 351.726562 170.082031 354.265625 173.273438 354.265625 " fill-opacity="1" fill-rule="nonzero"></path><path fill="#ffb400" d="M 173.273438 255.351562 L 392.65625 255.351562 C 395.78125 255.351562 398.386719 252.746094 398.386719 249.554688 C 398.386719 246.429688 395.78125 243.890625 392.65625 243.890625 L 173.273438 243.890625 C 170.082031 243.890625 167.542969 246.429688 167.542969 249.554688 C 167.542969 252.746094 170.082031 255.351562 173.273438 255.351562 " fill-opacity="1" fill-rule="nonzero"></path><path fill="#ffb400" d="M 173.273438 403.691406 L 392.65625 403.691406 C 395.78125 403.691406 398.386719 401.152344 398.386719 398.027344 C 398.386719 394.835938 395.78125 392.230469 392.65625 392.230469 L 173.273438 392.230469 C 170.082031 392.230469 167.542969 394.835938 167.542969 398.027344 C 167.542969 401.152344 170.082031 403.691406 173.273438 403.691406 " fill-opacity="1" fill-rule="nonzero"></path><path fill="#ffb400" d="M 173.273438 106.878906 L 284.363281 106.878906 C 287.554688 106.878906 290.09375 104.339844 290.09375 101.214844 C 290.09375 98.023438 287.554688 95.417969 284.363281 95.417969 L 173.273438 95.417969 C 170.082031 95.417969 167.542969 98.023438 167.542969 101.214844 C 167.542969 104.339844 170.082031 106.878906 173.273438 106.878906 " fill-opacity="1" fill-rule="nonzero"></path><path fill="#ffb400" d="M 173.273438 453.183594 L 392.65625 453.183594 C 395.78125 453.183594 398.386719 450.644531 398.386719 447.453125 C 398.386719 444.324219 395.78125 441.722656 392.65625 441.722656 L 173.273438 441.722656 C 170.082031 441.722656 167.542969 444.324219 167.542969 447.453125 C 167.542969 450.644531 170.082031 453.183594 173.273438 453.183594 " fill-opacity="1" fill-rule="nonzero"></path><path fill="#ffb400" d="M 556.367188 596.378906 C 555.0625 591.429688 555.0625 586.351562 556.367188 581.402344 L 572.125 588.890625 Z M 515.144531 561.929688 L 546.011719 576.519531 C 543.472656 584.65625 543.472656 593.1875 546.011719 601.328125 L 515.144531 615.980469 Z M 242.558594 606.40625 L 242.558594 571.4375 C 242.558594 564.339844 248.355469 558.609375 255.453125 558.609375 L 284.753906 558.609375 L 284.753906 619.367188 L 255.453125 619.367188 C 248.355469 619.367188 242.558594 613.503906 242.558594 606.40625 Z M 503.683594 619.367188 L 296.214844 619.367188 L 296.214844 558.609375 L 503.683594 558.609375 Z M 588.015625 583.679688 C 586.84375 583.09375 511.109375 547.148438 509.414062 547.148438 L 255.515625 547.148438 C 242.039062 547.148438 231.164062 558.023438 231.164062 571.4375 L 231.164062 606.40625 C 231.164062 619.886719 242.039062 630.828125 255.515625 630.828125 C 319.722656 630.828125 445.207031 630.828125 509.414062 630.828125 C 512.152344 630.828125 510.457031 630.695312 588.015625 594.035156 C 590.03125 593.121094 591.269531 591.105469 591.269531 588.890625 C 591.269531 586.675781 590.03125 584.65625 588.015625 583.679688 " fill-opacity="1" fill-rule="nonzero"></path><path fill="#ffb400" d="M 700.800781 124.398438 L 534.550781 124.398438 C 531.425781 124.398438 528.886719 126.9375 528.886719 130.128906 C 528.886719 133.316406 531.425781 135.859375 534.550781 135.859375 L 700.800781 135.859375 C 703.992188 135.859375 706.53125 133.316406 706.53125 130.128906 C 706.53125 126.9375 703.992188 124.398438 700.800781 124.398438 " fill-opacity="1" fill-rule="nonzero"></path><path fill="#ffb400" d="M 700.800781 164.445312 L 534.550781 164.445312 C 531.425781 164.445312 528.886719 166.984375 528.886719 170.175781 C 528.886719 173.300781 531.425781 175.90625 534.550781 175.90625 L 700.800781 175.90625 C 703.992188 175.90625 706.53125 173.300781 706.53125 170.175781 C 706.53125 166.984375 703.992188 164.445312 700.800781 164.445312 " fill-opacity="1" fill-rule="nonzero"></path><path fill="#ffb400" d="M 700.800781 84.347656 L 534.550781 84.347656 C 531.425781 84.347656 528.886719 86.886719 528.886719 90.078125 C 528.886719 93.269531 531.425781 95.808594 534.550781 95.808594 L 700.800781 95.808594 C 703.992188 95.808594 706.53125 93.269531 706.53125 90.078125 C 706.53125 86.886719 703.992188 84.347656 700.800781 84.347656 " fill-opacity="1" fill-rule="nonzero"></path><path fill="#ffb400" d="M 700.800781 204.492188 L 534.550781 204.492188 C 531.425781 204.492188 528.886719 207.03125 528.886719 210.222656 C 528.886719 213.347656 531.425781 215.953125 534.550781 215.953125 L 700.800781 215.953125 C 703.992188 215.953125 706.53125 213.347656 706.53125 210.222656 C 706.53125 207.03125 703.992188 204.492188 700.800781 204.492188 " fill-opacity="1" fill-rule="nonzero"></path></svg>