<svg xmlns="http://www.w3.org/2000/svg" xmlns:xlink="http://www.w3.org/1999/xlink" width="1024" viewBox="0 0 768 767.999994" height="1024" preserveAspectRatio="xMidYMid meet"><defs><clipPath id="1a423287b7"><path d="M 4.320312 0.683594 L 763.320312 0.683594 L 763.320312 622 L 4.320312 622 Z M 4.320312 0.683594 " clip-rule="nonzero"></path></clipPath><clipPath id="fd3f4d749a"><path d="M 4.320312 106.757812 L 763.320312 106.757812 L 763.320312 131 L 4.320312 131 Z M 4.320312 106.757812 " clip-rule="nonzero"></path></clipPath><clipPath id="85b264e453"><path d="M 344 402.09375 L 631 402.09375 L 631 767.398438 L 344 767.398438 Z M 344 402.09375 " clip-rule="nonzero"></path></clipPath></defs><g clip-path="url(#1a423287b7)"><path fill="#ffb400" d="M 367.019531 621.46875 L 48.535156 621.46875 C 24.160156 621.46875 4.320312 601.628906 4.320312 577.242188 L 4.320312 44.921875 C 4.320312 20.53125 24.160156 0.683594 48.535156 0.683594 L 719.15625 0.683594 C 743.542969 0.683594 763.371094 20.523438 763.371094 44.921875 L 763.371094 577.222656 C 763.371094 601.621094 743.542969 621.460938 719.15625 621.460938 L 618.515625 621.460938 C 611.90625 621.460938 606.546875 616.097656 606.546875 609.484375 C 606.546875 602.863281 611.90625 597.503906 618.515625 597.503906 L 719.15625 597.503906 C 730.335938 597.503906 739.425781 588.402344 739.425781 577.222656 L 739.425781 44.921875 C 739.425781 33.742188 730.335938 24.644531 719.15625 24.644531 L 48.535156 24.644531 C 37.363281 24.644531 28.269531 33.742188 28.269531 44.921875 L 28.269531 577.242188 C 28.269531 588.417969 37.363281 597.511719 48.535156 597.511719 L 367.019531 597.511719 C 373.636719 597.511719 378.996094 602.871094 378.996094 609.496094 C 378.996094 616.109375 373.636719 621.46875 367.019531 621.46875 " fill-opacity="1" fill-rule="evenodd"></path></g><g clip-path="url(#fd3f4d749a)"><path fill="#ffb400" d="M 751.402344 130.773438 L 16.296875 130.773438 C 9.679688 130.773438 4.320312 125.410156 4.320312 118.789062 C 4.320312 112.175781 9.679688 106.8125 16.296875 106.8125 L 751.402344 106.8125 C 758.011719 106.8125 763.371094 112.175781 763.371094 118.789062 C 763.371094 125.410156 758.011719 130.773438 751.402344 130.773438 " fill-opacity="1" fill-rule="evenodd"></path></g><path fill="#ffb400" d="M 678.796875 77.710938 L 357.996094 77.710938 C 351.378906 77.710938 346.019531 72.351562 346.019531 65.726562 C 346.019531 59.113281 351.378906 53.753906 357.996094 53.753906 L 678.796875 53.753906 C 685.40625 53.753906 690.773438 59.113281 690.773438 65.726562 C 690.773438 72.351562 685.40625 77.710938 678.796875 77.710938 " fill-opacity="1" fill-rule="evenodd"></path><path fill="#ffb400" d="M 120.617188 65.726562 C 120.617188 56.996094 113.492188 49.871094 104.765625 49.871094 C 96.027344 49.871094 88.90625 56.996094 88.90625 65.726562 C 88.90625 74.46875 96.027344 81.59375 104.765625 81.59375 C 113.492188 81.59375 120.617188 74.46875 120.617188 65.726562 " fill-opacity="1" fill-rule="evenodd"></path><path fill="#ffb400" d="M 186.976562 65.726562 C 186.976562 56.996094 179.855469 49.871094 171.125 49.871094 C 162.386719 49.871094 155.265625 56.996094 155.265625 65.726562 C 155.265625 74.46875 162.386719 81.59375 171.125 81.59375 C 179.855469 81.59375 186.976562 74.46875 186.976562 65.726562 " fill-opacity="1" fill-rule="evenodd"></path><path fill="#ffb400" d="M 253.339844 65.726562 C 253.339844 56.996094 246.21875 49.871094 237.488281 49.871094 C 228.757812 49.871094 221.628906 56.996094 221.628906 65.726562 C 221.628906 74.46875 228.757812 81.59375 237.488281 81.59375 C 246.21875 81.59375 253.339844 74.46875 253.339844 65.726562 " fill-opacity="1" fill-rule="evenodd"></path><path fill="#ffb400" d="M 383.847656 492.777344 C 349.503906 492.777344 317.207031 479.398438 292.925781 455.097656 C 268.636719 430.804688 255.273438 398.503906 255.273438 364.136719 C 255.273438 329.78125 268.636719 297.476562 292.925781 273.175781 C 317.214844 248.886719 349.503906 235.503906 383.847656 235.503906 C 418.195312 235.503906 450.484375 248.886719 474.765625 273.175781 C 499.054688 297.476562 512.429688 329.78125 512.429688 364.136719 C 512.429688 388.949219 505.355469 413.039062 491.964844 433.796875 C 488.382812 439.351562 480.96875 440.953125 475.40625 437.363281 C 469.851562 433.78125 468.25 426.363281 471.839844 420.804688 C 482.722656 403.921875 488.480469 384.335938 488.480469 364.136719 C 488.480469 306.421875 441.542969 259.460938 383.847656 259.460938 C 326.15625 259.460938 279.21875 306.421875 279.21875 364.136719 C 279.21875 421.859375 326.15625 468.820312 383.847656 468.820312 C 401.175781 468.820312 418.328125 464.5 433.464844 456.324219 C 439.285156 453.1875 446.546875 455.359375 449.6875 461.183594 C 452.832031 467.007812 450.65625 474.273438 444.832031 477.414062 C 426.21875 487.464844 405.128906 492.777344 383.847656 492.777344 " fill-opacity="1" fill-rule="evenodd"></path><path fill="#ffb400" d="M 425.820312 367.769531 C 421.101562 362.675781 415.363281 358.871094 408.761719 356.460938 C 402.605469 354.210938 394.582031 351.992188 384.933594 349.871094 C 372.210938 347.011719 366.777344 344.640625 364.445312 343.152344 C 361.847656 341.488281 360.628906 339.042969 360.628906 335.472656 C 360.628906 331.324219 362.34375 328.375 366.019531 326.171875 C 370.277344 323.636719 376.019531 322.355469 383.089844 322.355469 C 390.789062 322.355469 396.675781 323.921875 400.574219 327.007812 C 403.179688 329.074219 405.015625 331.933594 406.054688 335.523438 C 407.574219 340.804688 412.601562 344.320312 418 343.882812 L 418.210938 343.867188 C 421.589844 343.589844 424.652344 341.851562 426.625 339.089844 C 428.582031 336.351562 429.230469 332.914062 428.394531 329.65625 C 426.382812 321.761719 422.136719 315.269531 415.777344 310.363281 C 407.304688 303.832031 396.09375 300.515625 382.457031 300.515625 C 369.082031 300.515625 358.265625 303.878906 350.324219 310.5 C 342.164062 317.308594 338.019531 326.058594 338.019531 336.5 C 338.019531 345.792969 341.359375 353.488281 347.953125 359.34375 C 354.15625 364.875 364.203125 369.167969 377.796875 372.109375 C 390.328125 374.820312 399.292969 377.558594 404.441406 380.257812 C 408.574219 382.425781 410.496094 385.644531 410.496094 390.386719 C 410.496094 395.058594 408.566406 398.527344 404.433594 401.289062 C 399.875 404.328125 393.671875 405.871094 386.007812 405.871094 C 377.746094 405.871094 370.648438 403.972656 364.917969 400.21875 C 360.855469 397.554688 358.234375 393.75 356.925781 388.609375 C 355.53125 383.140625 350.445312 379.523438 344.816406 380.011719 C 341.519531 380.296875 338.5 381.996094 336.542969 384.675781 C 334.609375 387.324219 333.914062 390.664062 334.625 393.847656 C 336.574219 402.5 340.9375 409.917969 347.585938 415.898438 C 356.359375 423.785156 369.496094 427.792969 386.632812 427.792969 C 400.21875 427.792969 411.464844 424.167969 420.054688 417.027344 C 428.882812 409.699219 433.347656 400.339844 433.347656 389.21875 C 433.339844 380.371094 430.808594 373.164062 425.820312 367.769531 " fill-opacity="1" fill-rule="evenodd"></path><path fill="#ffb400" d="M 383.847656 446.429688 C 377.234375 446.429688 371.875 441.066406 371.875 434.453125 L 371.875 425.265625 C 371.875 418.644531 377.234375 413.28125 383.847656 413.28125 C 390.464844 413.28125 395.824219 418.644531 395.824219 425.265625 L 395.824219 434.453125 C 395.824219 441.066406 390.464844 446.429688 383.847656 446.429688 " fill-opacity="1" fill-rule="evenodd"></path><path fill="#ffb400" d="M 383.847656 314.96875 C 377.234375 314.96875 371.875 309.605469 371.875 302.992188 L 371.875 293.828125 C 371.875 287.214844 377.234375 281.855469 383.847656 281.855469 C 390.464844 281.855469 395.824219 287.214844 395.824219 293.828125 L 395.824219 302.992188 C 395.824219 309.605469 390.464844 314.96875 383.847656 314.96875 " fill-opacity="1" fill-rule="evenodd"></path><g clip-path="url(#85b264e453)"><path fill="#ffb400" d="M 588.152344 767.398438 L 450.859375 767.398438 C 444.246094 767.398438 438.886719 762.039062 438.886719 755.417969 L 438.886719 720.613281 C 438.886719 710.714844 435.160156 701.277344 428.410156 694.042969 C 428.386719 694.019531 428.371094 693.996094 428.347656 693.972656 L 353.710938 612.695312 C 340.921875 598.777344 341.375 577.394531 354.734375 564.023438 C 361.382812 557.367188 370.21875 553.710938 379.605469 553.710938 C 389.011719 553.710938 397.835938 557.367188 404.480469 564.015625 L 427.175781 586.714844 L 427.175781 436.664062 C 427.175781 417.703125 442.589844 402.273438 461.542969 402.273438 C 470.738281 402.273438 479.367188 405.855469 485.855469 412.355469 C 492.347656 418.839844 495.925781 427.476562 495.925781 436.664062 L 495.925781 575.183594 C 495.925781 581.796875 490.558594 587.160156 483.949219 587.160156 C 477.332031 587.160156 471.972656 581.796875 471.972656 575.183594 L 471.972656 436.664062 C 471.972656 433.878906 470.890625 431.261719 468.917969 429.296875 C 466.945312 427.320312 464.328125 426.230469 461.542969 426.230469 C 455.804688 426.230469 451.125 430.910156 451.125 436.664062 L 451.125 615.636719 C 451.125 620.488281 448.203125 624.847656 443.726562 626.703125 C 439.261719 628.5625 434.105469 627.539062 430.6875 624.109375 L 387.550781 580.953125 C 385.429688 578.832031 382.613281 577.664062 379.613281 577.664062 C 376.617188 577.664062 373.792969 578.832031 371.671875 580.953125 C 367.410156 585.21875 367.273438 592.042969 371.347656 596.488281 L 445.945312 677.722656 C 456.835938 689.40625 462.835938 704.632812 462.835938 720.613281 L 462.835938 743.441406 L 576.183594 743.441406 L 576.183594 736.234375 C 576.183594 725.957031 577.644531 715.746094 580.542969 705.867188 C 583.417969 696.058594 587.65625 686.734375 593.140625 678.136719 C 601.917969 664.398438 606.554688 648.832031 606.554688 633.121094 L 606.554688 566.855469 C 606.554688 564.070312 605.472656 561.453125 603.5 559.488281 C 601.542969 557.523438 598.953125 556.441406 596.199219 556.425781 C 596.175781 556.425781 596.160156 556.425781 596.136719 556.425781 C 590.539062 556.425781 585.765625 561.308594 585.691406 567.117188 C 585.691406 567.191406 585.691406 567.253906 585.691406 567.328125 L 585.691406 575.191406 C 585.691406 581.8125 580.332031 587.175781 573.714844 587.175781 C 567.105469 587.175781 561.746094 581.8125 561.746094 575.191406 L 561.746094 567.261719 C 561.746094 567.070312 561.746094 566.867188 561.753906 566.664062 C 562.070312 547.75 577.441406 532.46875 596.128906 532.46875 C 596.199219 532.46875 596.273438 532.46875 596.347656 532.46875 C 605.441406 532.523438 614 536.097656 620.441406 542.550781 C 626.921875 549.023438 630.503906 557.660156 630.503906 566.855469 L 630.503906 633.121094 C 630.503906 653.40625 624.558594 673.433594 613.328125 691.039062 C 609.054688 697.726562 605.757812 704.980469 603.527344 712.601562 C 601.269531 720.285156 600.132812 728.242188 600.132812 736.234375 L 600.132812 755.417969 C 600.132812 762.039062 594.769531 767.398438 588.152344 767.398438 Z M 585.675781 567.636719 C 585.675781 567.636719 585.675781 567.644531 585.675781 567.644531 C 585.675781 567.644531 585.675781 567.636719 585.675781 567.636719 " fill-opacity="1" fill-rule="evenodd"></path></g><path fill="#ffb400" d="M 528.832031 587.167969 C 522.214844 587.167969 516.863281 581.804688 516.863281 575.183594 L 516.863281 523.035156 C 516.863281 517.28125 512.183594 512.601562 506.425781 512.601562 C 500.675781 512.601562 496 517.28125 496 523.035156 L 496 575.183594 C 496 581.804688 490.640625 587.167969 484.03125 587.167969 C 477.410156 587.167969 472.050781 581.804688 472.050781 575.183594 L 472.050781 523.035156 C 472.050781 504.070312 487.472656 488.644531 506.425781 488.644531 C 525.390625 488.644531 540.808594 504.070312 540.808594 523.035156 L 540.808594 575.183594 C 540.808594 581.796875 535.441406 587.167969 528.832031 587.167969 " fill-opacity="1" fill-rule="evenodd"></path><path fill="#ffb400" d="M 573.722656 587.167969 C 567.105469 587.167969 561.746094 581.804688 561.746094 575.183594 L 561.746094 547.171875 C 561.746094 541.417969 557.066406 536.742188 551.316406 536.742188 C 545.570312 536.742188 540.890625 541.417969 540.890625 547.171875 L 540.890625 575.183594 C 540.890625 581.804688 535.53125 587.167969 528.921875 587.167969 C 522.304688 587.167969 516.941406 581.804688 516.941406 575.183594 L 516.941406 547.171875 C 516.941406 528.210938 532.363281 512.78125 551.316406 512.78125 C 570.269531 512.78125 585.691406 528.210938 585.691406 547.171875 L 585.691406 575.183594 C 585.691406 581.796875 580.332031 587.167969 573.722656 587.167969 " fill-opacity="1" fill-rule="evenodd"></path></svg>