<svg xmlns="http://www.w3.org/2000/svg" xmlns:xlink="http://www.w3.org/1999/xlink" width="1024" viewBox="0 0 768 767.999994" height="1024" preserveAspectRatio="xMidYMid meet"><defs><clipPath id="9ae4590890"><path d="M 12.480469 28 L 755 28 L 755 768 L 12.480469 768 Z M 12.480469 28 " clip-rule="nonzero"></path></clipPath></defs><g clip-path="url(#9ae4590890)"><path fill="#ffb400" d="M 737.304688 650.988281 L 644.984375 547.160156 C 638.390625 539.742188 629.324219 535.621094 619.433594 534.796875 C 609.542969 533.972656 599.652344 537.269531 592.234375 543.863281 L 576.570312 557.871094 L 541.953125 518.316406 C 619.433594 443.332031 647.457031 332.085938 614.488281 229.082031 L 684.550781 159.039062 L 703.507812 177.992188 C 706.804688 181.289062 711.75 182.113281 715.871094 181.289062 C 719.996094 179.640625 723.292969 176.34375 724.117188 171.398438 L 744.722656 42.851562 C 745.546875 38.730469 743.898438 34.609375 741.425781 32.136719 C 738.953125 29.664062 734.832031 28.015625 730.710938 28.839844 L 602.949219 49.441406 C 598.003906 50.265625 594.707031 53.5625 593.058594 57.683594 C 591.410156 61.800781 593.058594 66.746094 596.355469 70.042969 L 615.3125 88.996094 L 565.855469 137.613281 C 563.382812 134.316406 560.085938 131.023438 557.613281 127.726562 C 454.578125 11.535156 275.714844 0 158.667969 103.003906 C 143.007812 117.011719 129.816406 131.84375 118.277344 147.503906 C 118.277344 147.503906 117.453125 148.328125 117.453125 148.328125 C 101.792969 169.75 89.429688 193.648438 80.363281 218.371094 C 79.539062 221.664062 78.714844 223.3125 78.714844 224.960938 C 52.335938 303.246094 60.578125 391.417969 105.914062 464.753906 L 25.136719 464.753906 C 18.542969 463.929688 12.773438 469.699219 12.773438 476.292969 L 12.773438 721.855469 C 12.773438 728.445312 18.542969 734.214844 25.136719 734.214844 L 443.863281 734.214844 C 450.457031 734.214844 456.226562 728.445312 456.226562 721.855469 L 456.226562 574.351562 C 480.132812 564.464844 503.210938 550.453125 523.820312 533.972656 L 558.4375 573.527344 L 542.777344 587.535156 C 535.359375 594.128906 531.238281 603.191406 530.414062 613.082031 C 529.589844 622.96875 532.886719 632.859375 539.480469 640.273438 L 631.796875 744.101562 C 645.808594 759.757812 664.769531 768 684.550781 768 C 701.035156 768 717.519531 762.230469 730.710938 750.695312 C 744.722656 738.335938 752.964844 721.03125 753.789062 702.902344 C 755.4375 683.125 749.667969 664.996094 737.304688 650.988281 Z M 641.6875 80.753906 L 630.972656 70.042969 L 719.171875 56.035156 L 705.15625 144.207031 L 694.441406 133.492188 C 689.496094 128.550781 682.078125 128.550781 677.132812 133.492188 L 592.234375 216.722656 L 458.703125 350.214844 L 391.933594 283.46875 C 386.988281 278.523438 379.570312 278.523438 374.625 283.46875 L 269.945312 387.296875 L 105.089844 223.3125 C 110.859375 206.832031 119.101562 191.175781 128.167969 177.167969 L 260.875 309.835938 C 265.824219 314.78125 273.242188 314.78125 278.1875 309.835938 L 382.867188 206.007812 L 449.632812 272.753906 C 454.578125 277.699219 462 277.699219 466.945312 272.753906 L 640.863281 99.707031 C 643.335938 97.234375 644.160156 93.941406 644.160156 90.644531 C 644.160156 87.347656 643.335938 83.226562 641.6875 80.753906 Z M 175.152344 122.78125 C 281.484375 28.839844 444.6875 38.730469 538.65625 145.03125 C 541.953125 148.328125 545.25 152.445312 547.722656 156.566406 L 458.703125 245.5625 L 391.933594 178.816406 C 386.988281 173.871094 379.570312 173.871094 374.625 178.816406 L 269.945312 282.644531 L 143.007812 156.566406 C 152.898438 144.207031 163.613281 132.667969 175.152344 122.78125 Z M 431.5 709.492188 L 37.5 709.492188 L 37.5 488.652344 L 431.5 488.652344 Z M 443.863281 463.929688 L 135.589844 463.929688 C 90.253906 400.480469 77.890625 321.375 96.847656 249.683594 L 260.875 413.664062 C 263.351562 416.136719 266.648438 416.960938 269.945312 416.960938 C 273.242188 416.960938 276.539062 416.136719 279.011719 413.664062 L 383.691406 309.835938 L 450.457031 376.582031 C 455.402344 381.527344 462.824219 381.527344 467.769531 376.582031 L 595.53125 249.683594 C 620.257812 343.621094 590.585938 443.332031 517.222656 508.429688 C 499.089844 524.910156 478.484375 538.09375 457.050781 547.984375 L 457.050781 477.117188 C 456.226562 469.699219 450.457031 463.929688 443.863281 463.929688 Z M 715.046875 731.742188 C 696.089844 748.222656 667.242188 746.574219 650.753906 727.621094 L 558.4375 622.96875 C 555.964844 620.496094 555.140625 617.203125 555.140625 613.90625 C 555.140625 610.609375 556.789062 607.3125 559.261719 605.664062 L 608.71875 561.992188 C 611.191406 560.34375 613.664062 558.695312 616.960938 558.695312 C 616.960938 558.695312 617.785156 558.695312 617.785156 558.695312 C 621.082031 558.695312 624.378906 560.34375 626.027344 562.816406 L 718.34375 667.46875 C 726.589844 676.53125 729.886719 688.070312 729.886719 700.429688 C 729.0625 712.789062 723.292969 723.503906 715.046875 731.742188 Z M 715.046875 731.742188 " fill-opacity="1" fill-rule="nonzero"></path></g><path fill="#ffb400" d="M 70.472656 570.230469 C 70.472656 593.304688 89.429688 611.433594 111.683594 611.433594 L 118.277344 611.433594 C 127.34375 611.433594 134.765625 618.851562 134.765625 627.914062 C 134.765625 636.980469 127.34375 644.394531 118.277344 644.394531 L 82.835938 644.394531 C 76.242188 644.394531 70.472656 650.164062 70.472656 656.753906 C 70.472656 663.347656 76.242188 669.117188 82.835938 669.117188 L 118.277344 669.117188 C 141.359375 669.117188 159.492188 650.988281 159.492188 627.914062 C 159.492188 604.839844 140.535156 586.710938 118.277344 586.710938 L 111.683594 586.710938 C 102.617188 586.710938 95.199219 579.296875 95.199219 570.230469 C 95.199219 561.167969 102.617188 553.75 111.683594 553.75 L 147.128906 553.75 C 153.722656 553.75 159.492188 547.984375 159.492188 541.390625 C 159.492188 534.796875 153.722656 529.03125 147.128906 529.03125 L 111.683594 529.03125 C 89.429688 529.03125 70.472656 547.160156 70.472656 570.230469 Z M 70.472656 570.230469 " fill-opacity="1" fill-rule="nonzero"></path><path fill="#ffb400" d="M 202.355469 669.117188 L 266.648438 669.117188 C 273.242188 669.117188 279.011719 663.347656 279.011719 656.753906 C 279.011719 650.164062 273.242188 644.394531 266.648438 644.394531 L 214.71875 644.394531 L 214.71875 611.433594 L 266.648438 611.433594 C 273.242188 611.433594 279.011719 605.664062 279.011719 599.074219 C 279.011719 592.480469 273.242188 586.710938 266.648438 586.710938 L 214.71875 586.710938 L 214.71875 553.75 L 266.648438 553.75 C 273.242188 553.75 279.011719 547.984375 279.011719 541.390625 C 279.011719 534.796875 273.242188 529.03125 266.648438 529.03125 L 202.355469 529.03125 C 195.757812 529.03125 189.988281 534.796875 189.988281 541.390625 L 189.988281 656.753906 C 189.988281 663.347656 195.757812 669.117188 202.355469 669.117188 Z M 202.355469 669.117188 " fill-opacity="1" fill-rule="nonzero"></path><path fill="#ffb400" d="M 354.019531 669.117188 C 378.746094 669.117188 398.53125 649.339844 398.53125 624.617188 L 398.53125 572.703125 C 398.53125 547.984375 378.746094 528.207031 354.019531 528.207031 C 329.292969 528.207031 309.507812 547.984375 309.507812 572.703125 L 309.507812 624.617188 C 309.507812 649.339844 329.292969 669.117188 354.019531 669.117188 Z M 334.238281 573.527344 C 334.238281 562.816406 343.304688 553.75 354.019531 553.75 C 364.734375 553.75 373.800781 562.816406 373.800781 573.527344 L 373.800781 625.441406 C 373.800781 636.15625 364.734375 645.21875 354.019531 645.21875 C 343.304688 645.21875 334.238281 636.15625 334.238281 625.441406 Z M 334.238281 573.527344 " fill-opacity="1" fill-rule="nonzero"></path></svg>