<svg xmlns="http://www.w3.org/2000/svg" xmlns:xlink="http://www.w3.org/1999/xlink" width="1024" viewBox="0 0 768 767.999994" height="1024" preserveAspectRatio="xMidYMid meet"><defs><clipPath id="830d240630"><path d="M 0 4 L 751.5 4 L 751.5 756 L 0 756 Z M 0 4 " clip-rule="nonzero"></path></clipPath></defs><g clip-path="url(#830d240630)"><path fill="#ffb400" d="M 375.75 4.207031 C 346.917969 4.207031 324.085938 27.683594 324.085938 56.246094 C 324.085938 68.046875 327.867188 78.808594 334.457031 87.613281 C 310.449219 101.828125 294.664062 128.109375 294.664062 158.171875 L 294.664062 169.84375 C 294.664062 196.125 315.667969 217.058594 341.4375 217.058594 L 410.0625 217.058594 C 435.832031 217.058594 456.835938 195.992188 456.835938 169.84375 L 456.835938 158.171875 C 456.835938 128.109375 441.050781 101.828125 417.042969 87.613281 C 423.699219 78.808594 427.414062 68.046875 427.414062 56.246094 C 427.414062 27.683594 404.582031 4.207031 375.75 4.207031 Z M 375.75 29.246094 C 390.296875 29.246094 402.367188 41.117188 402.367188 56.246094 C 402.367188 71.375 390.296875 83.308594 375.75 83.308594 C 361.203125 83.308594 349.070312 71.375 349.070312 56.246094 C 349.070312 41.117188 361.203125 29.246094 375.75 29.246094 Z M 356.703125 104.632812 C 362.769531 107.109375 369.160156 108.285156 375.75 108.285156 C 382.339844 108.285156 388.210938 107.242188 394.863281 104.632812 C 416 112.328125 431.785156 133.0625 431.785156 158.171875 L 431.785156 169.84375 C 431.785156 182.039062 422.261719 192.015625 410.0625 192.015625 L 341.4375 192.015625 C 329.238281 192.015625 319.714844 182.039062 319.714844 169.84375 L 319.714844 158.171875 C 319.714844 132.671875 336.023438 111.9375 356.703125 104.632812 Z M 224.796875 169.582031 C 222.777344 169.714844 220.882812 170.300781 219.253906 171.34375 C 121.921875 227.492188 62.625 330.589844 62.625 442.429688 C 62.886719 459.125 87.21875 459.058594 87.675781 442.429688 C 87.675781 339.527344 142.539062 244.511719 231.710938 193.058594 C 242.738281 186.601562 238.5625 169.519531 224.796875 169.582031 Z M 525.789062 169.582031 C 512.480469 170.5625 509.285156 186.601562 519.789062 193.058594 C 608.960938 244.511719 663.824219 339.527344 663.824219 442.429688 C 663.824219 459.125 688.941406 459.125 688.941406 442.429688 C 688.941406 330.589844 629.183594 227.230469 532.3125 171.34375 C 530.484375 170.234375 528.464844 169.648438 525.789062 169.582031 Z M 375.75 242.097656 C 264.394531 242.097656 175.285156 332.679688 175.285156 442.429688 C 175.285156 552.183594 264.328125 642.761719 375.75 642.761719 C 487.234375 642.761719 576.085938 552.507812 576.085938 442.429688 C 576.085938 332.222656 487.105469 242.097656 375.75 242.097656 Z M 338.828125 271.054688 C 318.539062 289.574219 301.839844 311.222656 289.316406 335.222656 C 277.441406 329.679688 266.089844 323.027344 255.261719 315.203125 C 278.222656 293.484375 307.1875 277.898438 338.828125 271.054688 Z M 412.671875 271.117188 C 444.375 277.898438 473.339844 293.421875 496.238281 315.070312 C 485.410156 322.960938 474.058594 329.742188 462.183594 335.351562 C 449.660156 311.355469 432.960938 289.574219 412.671875 271.117188 Z M 388.210938 282.988281 C 408.953125 300.203125 426.175781 321.332031 438.765625 344.613281 C 422.457031 349.960938 405.433594 353.351562 388.210938 354.394531 Z M 363.160156 283.183594 L 363.160156 354.460938 C 346.003906 353.351562 328.976562 350.023438 312.734375 344.675781 C 325.257812 321.398438 342.480469 300.332031 363.160156 283.183594 Z M 238.300781 333.65625 C 251.152344 343.242188 264.65625 351.460938 278.941406 358.175781 C 270.070312 380.871094 264.722656 405 263.351562 429.910156 L 200.921875 429.910156 C 203.464844 393.652344 216.96875 360.457031 238.300781 333.65625 Z M 513.265625 333.722656 C 534.53125 360.523438 548.035156 393.652344 550.578125 429.910156 L 488.082031 429.910156 C 486.777344 405 481.496094 380.871094 472.558594 358.109375 C 486.84375 351.460938 500.414062 343.242188 513.265625 333.722656 Z M 302.164062 367.566406 C 321.734375 374.285156 342.351562 378.261719 363.160156 379.433594 L 363.160156 429.910156 L 288.464844 429.910156 C 289.769531 408.257812 294.402344 387.324219 302.164062 367.566406 Z M 449.335938 367.566406 C 457.03125 387.324219 461.730469 408.195312 463.035156 429.910156 L 388.210938 429.910156 L 388.210938 379.5 C 409.085938 378.328125 429.632812 374.285156 449.335938 367.566406 Z M 200.855469 454.949219 L 263.351562 454.949219 C 264.722656 479.925781 270.070312 504.054688 279.007812 526.8125 C 264.722656 533.464844 251.085938 541.683594 238.234375 551.203125 C 216.96875 524.402344 203.402344 491.273438 200.855469 454.949219 Z M 288.464844 454.949219 L 363.160156 454.949219 L 363.160156 505.425781 C 342.351562 506.597656 321.800781 510.640625 302.164062 517.359375 C 294.402344 497.535156 289.769531 476.667969 288.464844 454.949219 Z M 388.210938 454.949219 L 463.035156 454.949219 C 461.730469 476.667969 457.097656 497.535156 449.335938 517.359375 C 429.699219 510.640625 409.019531 506.535156 388.210938 505.425781 Z M 488.082031 454.949219 L 550.578125 454.949219 C 548.035156 491.273438 534.464844 524.335938 513.199219 551.203125 C 500.414062 541.617188 486.777344 533.464844 472.492188 526.8125 C 481.429688 504.054688 486.777344 479.925781 488.082031 454.949219 Z M 100.199219 492.511719 C 65.5625 492.511719 37.574219 520.621094 37.574219 555.050781 C 37.574219 570.507812 43.183594 584.722656 52.578125 595.679688 C 21.265625 612.566406 0 645.957031 0 684.300781 L 0 698.910156 C 0 729.949219 24.855469 755.449219 56.429688 755.449219 L 144.039062 755.449219 C 175.089844 755.449219 200.335938 730.535156 200.335938 698.910156 L 200.335938 684.300781 C 200.335938 645.957031 179.328125 612.699219 147.820312 595.742188 C 157.214844 584.789062 162.824219 570.570312 162.824219 555.050781 C 162.824219 520.621094 134.839844 492.511719 100.199219 492.511719 Z M 651.300781 496.097656 C 616.53125 496.097656 588.675781 524.269531 588.675781 558.703125 C 588.675781 573.113281 593.4375 586.222656 601.722656 596.851562 C 571.257812 614.132812 551.035156 647.195312 551.035156 684.300781 L 551.035156 698.910156 C 551.035156 729.949219 576.019531 755.449219 607.460938 755.449219 L 695.136719 755.449219 C 726.710938 755.449219 751.5 729.949219 751.5 698.910156 L 751.5 684.300781 C 751.5 646.804688 731.34375 614.132812 700.878906 596.851562 C 709.226562 586.222656 713.988281 572.855469 713.988281 558.703125 C 713.988281 524.269531 686.003906 496.097656 651.300781 496.097656 Z M 100.199219 517.554688 C 120.75 517.554688 137.773438 534.183594 137.773438 555.050781 C 137.773438 575.984375 120.878906 592.679688 100.199219 592.679688 C 79.585938 592.679688 62.625 575.984375 62.625 555.050781 C 62.625 534.183594 79.652344 517.554688 100.199219 517.554688 Z M 651.300781 521.140625 C 671.847656 521.140625 688.941406 537.769531 688.941406 558.703125 C 688.941406 579.570312 671.847656 596.332031 651.300781 596.332031 C 630.75 596.332031 613.726562 579.570312 613.726562 558.703125 C 613.726562 537.769531 630.75 521.140625 651.300781 521.140625 Z M 363.160156 530.464844 L 363.160156 601.808594 C 342.480469 584.65625 325.257812 563.527344 312.734375 540.246094 C 328.976562 534.964844 346.003906 531.574219 363.160156 530.464844 Z M 388.210938 530.464844 C 405.433594 531.574219 422.394531 534.902344 438.699219 540.246094 C 426.175781 563.527344 409.085938 584.59375 388.339844 601.742188 Z M 289.316406 549.636719 C 301.839844 573.570312 318.539062 595.285156 338.761719 613.742188 C 306.730469 606.894531 278.160156 591.4375 255.261719 569.722656 C 266.089844 561.898438 277.441406 555.179688 289.316406 549.636719 Z M 462.183594 549.636719 C 474.058594 555.179688 485.472656 561.898438 496.304688 569.789062 C 473.730469 591.179688 444.636719 606.960938 412.605469 613.808594 C 432.960938 595.222656 449.660156 573.570312 462.183594 549.636719 Z M 124.53125 612.828125 C 153.757812 622.609375 175.285156 650.71875 175.285156 684.300781 L 175.285156 698.910156 C 175.285156 716.253906 161.585938 730.40625 144.039062 730.40625 L 56.429688 730.40625 C 39.074219 730.40625 25.050781 716.582031 25.050781 698.910156 L 25.050781 684.300781 C 25.050781 650.71875 46.511719 622.675781 75.867188 612.828125 C 83.238281 615.894531 91.785156 617.71875 100.199219 617.71875 C 108.679688 617.71875 117.160156 615.894531 124.53125 612.828125 Z M 622.726562 614.394531 C 631.207031 618.699219 641.1875 621.371094 651.300781 621.371094 C 661.410156 621.371094 671.390625 618.761719 679.871094 614.394531 C 706.878906 625.285156 726.449219 652.28125 726.449219 684.300781 L 726.449219 698.910156 C 726.449219 716.582031 712.425781 730.40625 695.136719 730.40625 L 607.460938 730.40625 C 590.304688 730.40625 576.085938 716.582031 576.085938 698.910156 L 576.085938 684.300781 C 576.085938 652.28125 596.175781 625.089844 622.726562 614.394531 Z M 259.761719 707.648438 C 246.78125 708.886719 243.976562 726.492188 256.109375 731.710938 C 332.695312 763.339844 418.675781 763.339844 495.324219 731.710938 C 507.914062 726.234375 504.195312 708.496094 491.410156 707.648438 C 489.453125 707.648438 487.5625 707.710938 485.800781 708.625 C 415.28125 737.710938 336.152344 737.710938 265.632812 708.625 C 263.742188 707.777344 261.851562 707.515625 259.761719 707.648438 " fill-opacity="1" fill-rule="nonzero"></path></g></svg>