<svg xmlns="http://www.w3.org/2000/svg" xmlns:xlink="http://www.w3.org/1999/xlink" width="1024" viewBox="0 0 768 767.999994" height="1024" preserveAspectRatio="xMidYMid meet"><defs><clipPath id="684c149b08"><path d="M 13.394531 65.28125 L 754.394531 65.28125 L 754.394531 702.78125 L 13.394531 702.78125 Z M 13.394531 65.28125 " clip-rule="nonzero"></path></clipPath></defs><g clip-path="url(#684c149b08)"><path fill="#ffb400" d="M 693.914062 65.28125 L 73.878906 65.28125 C 71.902344 65.28125 69.933594 65.382812 67.972656 65.578125 C 66.007812 65.773438 64.058594 66.0625 62.121094 66.449219 C 60.1875 66.839844 58.277344 67.320312 56.386719 67.894531 C 54.5 68.46875 52.644531 69.132812 50.820312 69.890625 C 48.996094 70.648438 47.214844 71.492188 45.476562 72.421875 C 43.734375 73.355469 42.046875 74.367188 40.40625 75.464844 C 38.765625 76.5625 37.179688 77.738281 35.65625 78.992188 C 34.128906 80.242188 32.667969 81.566406 31.273438 82.964844 C 29.878906 84.359375 28.554688 85.820312 27.300781 87.347656 C 26.050781 88.875 24.875 90.457031 23.777344 92.097656 C 22.679688 93.738281 21.667969 95.429688 20.734375 97.171875 C 19.804688 98.914062 18.960938 100.695312 18.203125 102.519531 C 17.449219 104.34375 16.78125 106.199219 16.207031 108.085938 C 15.632812 109.976562 15.152344 111.886719 14.765625 113.824219 C 14.378906 115.761719 14.089844 117.710938 13.894531 119.675781 C 13.699219 121.640625 13.597656 123.609375 13.597656 125.585938 L 13.597656 642.476562 C 13.597656 644.449219 13.699219 646.421875 13.894531 648.382812 C 14.089844 650.347656 14.378906 652.300781 14.765625 654.234375 C 15.152344 656.171875 15.632812 658.085938 16.207031 659.972656 C 16.78125 661.863281 17.449219 663.71875 18.203125 665.542969 C 18.960938 667.367188 19.804688 669.148438 20.734375 670.890625 C 21.667969 672.628906 22.679688 674.320312 23.777344 675.960938 C 24.875 677.601562 26.050781 679.1875 27.300781 680.714844 C 28.554688 682.238281 29.878906 683.699219 31.273438 685.097656 C 32.667969 686.492188 34.128906 687.816406 35.65625 689.070312 C 37.179688 690.324219 38.765625 691.496094 40.40625 692.59375 C 42.046875 693.691406 43.734375 694.707031 45.476562 695.636719 C 47.214844 696.570312 48.996094 697.414062 50.820312 698.171875 C 52.644531 698.925781 54.5 699.59375 56.386719 700.167969 C 58.277344 700.742188 60.1875 701.222656 62.121094 701.609375 C 64.058594 701.996094 66.007812 702.289062 67.972656 702.484375 C 69.933594 702.679688 71.902344 702.777344 73.878906 702.78125 L 693.914062 702.78125 C 695.886719 702.777344 697.855469 702.679688 699.820312 702.484375 C 701.78125 702.289062 703.734375 701.996094 705.667969 701.609375 C 707.601562 701.222656 709.515625 700.742188 711.402344 700.167969 C 713.292969 699.59375 715.148438 698.925781 716.96875 698.171875 C 718.792969 697.414062 720.574219 696.570312 722.316406 695.636719 C 724.054688 694.707031 725.746094 693.691406 727.386719 692.59375 C 729.027344 691.496094 730.609375 690.324219 732.136719 689.070312 C 733.660156 687.816406 735.121094 686.492188 736.515625 685.097656 C 737.914062 683.699219 739.238281 682.238281 740.488281 680.714844 C 741.742188 679.1875 742.914062 677.601562 744.011719 675.960938 C 745.109375 674.320312 746.125 672.628906 747.054688 670.890625 C 747.984375 669.148438 748.828125 667.367188 749.585938 665.542969 C 750.34375 663.71875 751.007812 661.863281 751.582031 659.972656 C 752.15625 658.085938 752.636719 656.171875 753.023438 654.234375 C 753.410156 652.300781 753.703125 650.347656 753.898438 648.382812 C 754.09375 646.421875 754.191406 644.449219 754.195312 642.476562 L 754.195312 125.585938 C 754.191406 123.609375 754.09375 121.640625 753.898438 119.675781 C 753.703125 117.710938 753.410156 115.761719 753.023438 113.824219 C 752.636719 111.886719 752.15625 109.976562 751.582031 108.085938 C 751.007812 106.199219 750.34375 104.34375 749.585938 102.519531 C 748.828125 100.695312 747.984375 98.914062 747.054688 97.171875 C 746.125 95.429688 745.109375 93.738281 744.011719 92.097656 C 742.914062 90.457031 741.742188 88.875 740.488281 87.347656 C 739.234375 85.820312 737.914062 84.359375 736.515625 82.964844 C 735.121094 81.566406 733.660156 80.242188 732.136719 78.992188 C 730.609375 77.738281 729.027344 76.5625 727.386719 75.464844 C 725.746094 74.367188 724.054688 73.355469 722.316406 72.421875 C 720.574219 71.492188 718.792969 70.648438 716.96875 69.890625 C 715.148438 69.132812 713.292969 68.46875 711.402344 67.894531 C 709.515625 67.320312 707.605469 66.839844 705.667969 66.449219 C 703.734375 66.0625 701.785156 65.773438 699.820312 65.578125 C 697.855469 65.382812 695.886719 65.28125 693.914062 65.28125 Z M 73.878906 82.511719 L 693.914062 82.511719 C 695.324219 82.511719 696.730469 82.582031 698.132812 82.722656 C 699.535156 82.863281 700.925781 83.070312 702.308594 83.347656 C 703.691406 83.621094 705.058594 83.964844 706.40625 84.375 C 707.753906 84.785156 709.082031 85.261719 710.382812 85.800781 C 711.683594 86.34375 712.957031 86.945312 714.199219 87.609375 C 715.445312 88.277344 716.652344 89 717.824219 89.785156 C 718.996094 90.570312 720.125 91.40625 721.214844 92.304688 C 722.304688 93.199219 723.347656 94.144531 724.34375 95.140625 C 725.339844 96.136719 726.289062 97.183594 727.183594 98.273438 C 728.078125 99.363281 728.914062 100.492188 729.699219 101.664062 C 730.484375 102.835938 731.207031 104.046875 731.871094 105.289062 C 732.535156 106.53125 733.140625 107.804688 733.679688 109.109375 C 734.21875 110.410156 734.695312 111.738281 735.105469 113.085938 C 735.515625 114.433594 735.859375 115.800781 736.136719 117.183594 C 736.410156 118.566406 736.621094 119.960938 736.757812 121.363281 C 736.898438 122.765625 736.96875 124.175781 736.972656 125.585938 L 736.972656 168.660156 L 30.820312 168.660156 L 30.820312 125.585938 C 30.820312 124.175781 30.890625 122.765625 31.03125 121.363281 C 31.171875 119.960938 31.378906 118.566406 31.65625 117.183594 C 31.933594 115.800781 32.273438 114.433594 32.683594 113.085938 C 33.09375 111.738281 33.570312 110.410156 34.109375 109.109375 C 34.652344 107.804688 35.253906 106.53125 35.917969 105.289062 C 36.585938 104.046875 37.308594 102.835938 38.09375 101.664062 C 38.875 100.492188 39.714844 99.363281 40.609375 98.273438 C 41.503906 97.183594 42.449219 96.136719 43.445312 95.140625 C 44.441406 94.144531 45.484375 93.199219 46.574219 92.304688 C 47.664062 91.40625 48.796875 90.570312 49.96875 89.785156 C 51.140625 89 52.347656 88.277344 53.589844 87.609375 C 54.832031 86.945312 56.105469 86.34375 57.40625 85.800781 C 58.710938 85.261719 60.035156 84.785156 61.382812 84.375 C 62.734375 83.964844 64.097656 83.621094 65.480469 83.347656 C 66.863281 83.070312 68.257812 82.863281 69.660156 82.722656 C 71.0625 82.582031 72.46875 82.511719 73.878906 82.511719 Z M 693.914062 685.550781 L 73.878906 685.550781 C 72.46875 685.550781 71.0625 685.476562 69.660156 685.339844 C 68.257812 685.199219 66.863281 684.992188 65.480469 684.714844 C 64.097656 684.4375 62.734375 684.09375 61.382812 683.683594 C 60.035156 683.273438 58.710938 682.796875 57.40625 682.257812 C 56.105469 681.71875 54.832031 681.113281 53.589844 680.449219 C 52.347656 679.785156 51.140625 679.058594 49.96875 678.277344 C 48.796875 677.492188 47.664062 676.652344 46.574219 675.757812 C 45.484375 674.863281 44.441406 673.917969 43.445312 672.917969 C 42.449219 671.921875 41.503906 670.878906 40.609375 669.789062 C 39.714844 668.699219 38.875 667.566406 38.09375 666.394531 C 37.308594 665.222656 36.585938 664.015625 35.917969 662.769531 C 35.253906 661.527344 34.652344 660.253906 34.109375 658.953125 C 33.570312 657.648438 33.09375 656.324219 32.683594 654.972656 C 32.273438 653.625 31.933594 652.257812 31.65625 650.875 C 31.378906 649.492188 31.171875 648.101562 31.03125 646.695312 C 30.890625 645.292969 30.820312 643.886719 30.820312 642.476562 L 30.820312 185.886719 L 736.972656 185.886719 L 736.972656 642.476562 C 736.96875 643.886719 736.898438 645.292969 736.757812 646.695312 C 736.621094 648.101562 736.410156 649.492188 736.136719 650.875 C 735.859375 652.257812 735.515625 653.625 735.105469 654.972656 C 734.695312 656.324219 734.21875 657.648438 733.679688 658.953125 C 733.140625 660.253906 732.535156 661.527344 731.871094 662.769531 C 731.207031 664.015625 730.484375 665.222656 729.699219 666.394531 C 728.914062 667.566406 728.078125 668.699219 727.183594 669.789062 C 726.289062 670.878906 725.339844 671.921875 724.34375 672.917969 C 723.347656 673.917969 722.304688 674.863281 721.214844 675.757812 C 720.125 676.652344 718.996094 677.492188 717.824219 678.277344 C 716.652344 679.058594 715.445312 679.785156 714.199219 680.449219 C 712.957031 681.113281 711.683594 681.71875 710.382812 682.257812 C 709.082031 682.796875 707.753906 683.273438 706.40625 683.683594 C 705.058594 684.09375 703.691406 684.4375 702.308594 684.714844 C 700.925781 684.992188 699.535156 685.199219 698.132812 685.339844 C 696.730469 685.476562 695.324219 685.550781 693.914062 685.550781 Z M 693.914062 685.550781 " fill-opacity="1" fill-rule="nonzero"></path></g><path fill="#ffb400" d="M 82.488281 151.429688 C 83.335938 151.429688 84.179688 151.386719 85.023438 151.304688 C 85.863281 151.222656 86.699219 151.097656 87.53125 150.933594 C 88.359375 150.765625 89.179688 150.5625 89.988281 150.316406 C 90.796875 150.070312 91.59375 149.785156 92.375 149.460938 C 93.15625 149.136719 93.921875 148.777344 94.667969 148.378906 C 95.414062 147.976562 96.140625 147.542969 96.84375 147.074219 C 97.546875 146.601562 98.226562 146.097656 98.878906 145.5625 C 99.53125 145.027344 100.160156 144.457031 100.757812 143.859375 C 101.355469 143.261719 101.921875 142.632812 102.460938 141.980469 C 102.996094 141.324219 103.5 140.648438 103.96875 139.941406 C 104.441406 139.238281 104.875 138.515625 105.273438 137.765625 C 105.671875 137.019531 106.035156 136.257812 106.359375 135.472656 C 106.679688 134.691406 106.964844 133.898438 107.210938 133.085938 C 107.457031 132.277344 107.664062 131.457031 107.828125 130.625 C 107.992188 129.796875 108.117188 128.960938 108.199219 128.117188 C 108.28125 127.273438 108.324219 126.429688 108.324219 125.585938 C 108.324219 124.738281 108.28125 123.894531 108.199219 123.050781 C 108.117188 122.207031 107.992188 121.371094 107.828125 120.542969 C 107.664062 119.710938 107.457031 118.890625 107.210938 118.082031 C 106.964844 117.273438 106.679688 116.476562 106.359375 115.695312 C 106.035156 114.910156 105.671875 114.148438 105.273438 113.402344 C 104.875 112.65625 104.441406 111.929688 103.96875 111.226562 C 103.5 110.523438 102.996094 109.84375 102.460938 109.1875 C 101.921875 108.535156 101.355469 107.90625 100.757812 107.308594 C 100.160156 106.710938 99.53125 106.144531 98.878906 105.605469 C 98.226562 105.070312 97.546875 104.566406 96.84375 104.09375 C 96.140625 103.625 95.414062 103.191406 94.667969 102.792969 C 93.921875 102.390625 93.15625 102.03125 92.375 101.707031 C 91.59375 101.382812 90.796875 101.097656 89.988281 100.851562 C 89.179688 100.605469 88.359375 100.402344 87.53125 100.234375 C 86.699219 100.070312 85.863281 99.945312 85.023438 99.863281 C 84.179688 99.78125 83.335938 99.738281 82.488281 99.738281 C 81.644531 99.738281 80.800781 99.78125 79.957031 99.863281 C 79.113281 99.945312 78.277344 100.070312 77.449219 100.234375 C 76.621094 100.402344 75.800781 100.605469 74.988281 100.851562 C 74.179688 101.097656 73.382812 101.382812 72.601562 101.707031 C 71.820312 102.03125 71.058594 102.390625 70.3125 102.792969 C 69.566406 103.191406 68.839844 103.625 68.136719 104.09375 C 67.433594 104.566406 66.753906 105.070312 66.101562 105.605469 C 65.445312 106.144531 64.820312 106.710938 64.222656 107.308594 C 63.625 107.90625 63.054688 108.535156 62.519531 109.1875 C 61.980469 109.84375 61.480469 110.523438 61.007812 111.226562 C 60.539062 111.929688 60.105469 112.65625 59.707031 113.402344 C 59.304688 114.148438 58.945312 114.910156 58.621094 115.695312 C 58.296875 116.476562 58.011719 117.273438 57.765625 118.082031 C 57.519531 118.890625 57.316406 119.710938 57.152344 120.542969 C 56.984375 121.371094 56.863281 122.207031 56.777344 123.050781 C 56.695312 123.894531 56.65625 124.738281 56.65625 125.585938 C 56.65625 126.429688 56.699219 127.273438 56.78125 128.117188 C 56.863281 128.957031 56.988281 129.792969 57.15625 130.625 C 57.320312 131.453125 57.527344 132.273438 57.773438 133.082031 C 58.019531 133.894531 58.304688 134.6875 58.628906 135.46875 C 58.953125 136.25 59.3125 137.015625 59.714844 137.761719 C 60.113281 138.507812 60.546875 139.234375 61.015625 139.9375 C 61.488281 140.640625 61.992188 141.316406 62.527344 141.972656 C 63.0625 142.625 63.632812 143.253906 64.230469 143.851562 C 64.828125 144.449219 65.453125 145.015625 66.109375 145.554688 C 66.761719 146.089844 67.441406 146.59375 68.144531 147.066406 C 68.847656 147.535156 69.570312 147.96875 70.316406 148.367188 C 71.0625 148.769531 71.824219 149.128906 72.605469 149.453125 C 73.386719 149.777344 74.183594 150.0625 74.992188 150.308594 C 75.800781 150.554688 76.621094 150.761719 77.453125 150.925781 C 78.28125 151.09375 79.117188 151.21875 79.957031 151.300781 C 80.800781 151.386719 81.644531 151.429688 82.488281 151.429688 Z M 82.488281 116.96875 C 83.054688 116.96875 83.613281 117.023438 84.167969 117.136719 C 84.722656 117.246094 85.261719 117.410156 85.785156 117.625 C 86.308594 117.839844 86.804688 118.105469 87.273438 118.421875 C 87.742188 118.734375 88.179688 119.09375 88.578125 119.492188 C 88.976562 119.894531 89.335938 120.328125 89.648438 120.796875 C 89.964844 121.269531 90.230469 121.765625 90.445312 122.289062 C 90.660156 122.808594 90.824219 123.347656 90.933594 123.902344 C 91.046875 124.457031 91.101562 125.019531 91.101562 125.585938 C 91.101562 126.148438 91.046875 126.710938 90.933594 127.265625 C 90.824219 127.820312 90.660156 128.359375 90.445312 128.882812 C 90.230469 129.402344 89.964844 129.898438 89.648438 130.371094 C 89.335938 130.839844 88.976562 131.277344 88.578125 131.675781 C 88.179688 132.074219 87.742188 132.433594 87.273438 132.746094 C 86.804688 133.0625 86.308594 133.328125 85.785156 133.542969 C 85.261719 133.761719 84.722656 133.921875 84.167969 134.035156 C 83.613281 134.144531 83.054688 134.199219 82.488281 134.199219 C 81.925781 134.199219 81.363281 134.144531 80.808594 134.035156 C 80.253906 133.921875 79.714844 133.761719 79.195312 133.542969 C 78.671875 133.328125 78.175781 133.0625 77.703125 132.746094 C 77.234375 132.433594 76.800781 132.074219 76.398438 131.675781 C 76 131.277344 75.644531 130.839844 75.328125 130.371094 C 75.015625 129.898438 74.75 129.402344 74.535156 128.882812 C 74.316406 128.359375 74.152344 127.820312 74.042969 127.265625 C 73.933594 126.710938 73.878906 126.148438 73.878906 125.585938 C 73.878906 125.019531 73.933594 124.457031 74.042969 123.902344 C 74.15625 123.347656 74.316406 122.8125 74.535156 122.289062 C 74.75 121.765625 75.015625 121.269531 75.332031 120.800781 C 75.644531 120.328125 76.003906 119.894531 76.402344 119.496094 C 76.800781 119.09375 77.238281 118.738281 77.707031 118.421875 C 78.175781 118.109375 78.671875 117.84375 79.195312 117.625 C 79.71875 117.410156 80.253906 117.246094 80.808594 117.136719 C 81.363281 117.023438 81.925781 116.96875 82.488281 116.96875 Z M 82.488281 116.96875 " fill-opacity="1" fill-rule="nonzero"></path><path fill="#ffb400" d="M 151.382812 151.429688 C 152.226562 151.429688 153.074219 151.386719 153.914062 151.304688 C 154.757812 151.222656 155.59375 151.097656 156.421875 150.933594 C 157.253906 150.765625 158.070312 150.5625 158.882812 150.316406 C 159.691406 150.070312 160.488281 149.785156 161.269531 149.460938 C 162.050781 149.136719 162.8125 148.777344 163.5625 148.378906 C 164.308594 147.976562 165.03125 147.542969 165.734375 147.074219 C 166.4375 146.601562 167.117188 146.097656 167.773438 145.5625 C 168.425781 145.027344 169.050781 144.457031 169.648438 143.859375 C 170.25 143.261719 170.816406 142.632812 171.351562 141.980469 C 171.890625 141.324219 172.394531 140.648438 172.863281 139.941406 C 173.332031 139.238281 173.765625 138.515625 174.167969 137.765625 C 174.566406 137.019531 174.925781 136.257812 175.25 135.472656 C 175.574219 134.691406 175.859375 133.898438 176.105469 133.085938 C 176.351562 132.277344 176.554688 131.457031 176.71875 130.625 C 176.886719 129.796875 177.007812 128.960938 177.09375 128.117188 C 177.175781 127.273438 177.21875 126.429688 177.21875 125.585938 C 177.21875 124.738281 177.175781 123.894531 177.09375 123.050781 C 177.007812 122.207031 176.886719 121.371094 176.71875 120.542969 C 176.554688 119.710938 176.351562 118.890625 176.105469 118.082031 C 175.859375 117.273438 175.574219 116.476562 175.25 115.695312 C 174.925781 114.910156 174.566406 114.148438 174.167969 113.402344 C 173.765625 112.65625 173.332031 111.929688 172.863281 111.226562 C 172.394531 110.523438 171.890625 109.84375 171.351562 109.1875 C 170.816406 108.535156 170.25 107.90625 169.648438 107.308594 C 169.050781 106.710938 168.425781 106.144531 167.773438 105.605469 C 167.117188 105.070312 166.4375 104.566406 165.734375 104.09375 C 165.03125 103.625 164.308594 103.191406 163.5625 102.792969 C 162.8125 102.390625 162.050781 102.03125 161.269531 101.707031 C 160.488281 101.382812 159.691406 101.097656 158.882812 100.851562 C 158.070312 100.605469 157.253906 100.402344 156.421875 100.234375 C 155.59375 100.070312 154.757812 99.945312 153.914062 99.863281 C 153.074219 99.78125 152.226562 99.738281 151.382812 99.738281 C 150.535156 99.738281 149.691406 99.78125 148.851562 99.863281 C 148.007812 99.945312 147.171875 100.070312 146.34375 100.234375 C 145.511719 100.402344 144.691406 100.605469 143.882812 100.851562 C 143.074219 101.097656 142.277344 101.382812 141.496094 101.707031 C 140.714844 102.03125 139.949219 102.390625 139.203125 102.792969 C 138.457031 103.191406 137.734375 103.625 137.027344 104.09375 C 136.324219 104.566406 135.648438 105.070312 134.992188 105.605469 C 134.339844 106.144531 133.710938 106.710938 133.113281 107.308594 C 132.515625 107.90625 131.949219 108.535156 131.410156 109.1875 C 130.875 109.84375 130.371094 110.523438 129.902344 111.226562 C 129.429688 111.929688 128.996094 112.65625 128.597656 113.402344 C 128.199219 114.148438 127.835938 114.910156 127.515625 115.695312 C 127.191406 116.476562 126.90625 117.273438 126.660156 118.082031 C 126.414062 118.890625 126.207031 119.710938 126.042969 120.542969 C 125.878906 121.371094 125.753906 122.207031 125.671875 123.050781 C 125.589844 123.894531 125.546875 124.738281 125.546875 125.585938 C 125.546875 126.429688 125.589844 127.273438 125.675781 128.117188 C 125.757812 128.957031 125.882812 129.792969 126.046875 130.625 C 126.214844 131.453125 126.421875 132.273438 126.667969 133.082031 C 126.914062 133.894531 127.199219 134.6875 127.519531 135.46875 C 127.84375 136.25 128.207031 137.015625 128.605469 137.761719 C 129.003906 138.507812 129.441406 139.234375 129.910156 139.9375 C 130.378906 140.640625 130.882812 141.316406 131.421875 141.972656 C 131.957031 142.625 132.523438 143.253906 133.121094 143.851562 C 133.71875 144.449219 134.347656 145.015625 135 145.554688 C 135.652344 146.089844 136.332031 146.59375 137.035156 147.066406 C 137.738281 147.535156 138.464844 147.96875 139.210938 148.367188 C 139.957031 148.769531 140.71875 149.128906 141.5 149.453125 C 142.28125 149.777344 143.078125 150.0625 143.886719 150.308594 C 144.695312 150.554688 145.515625 150.761719 146.34375 150.925781 C 147.171875 151.09375 148.007812 151.21875 148.851562 151.300781 C 149.691406 151.386719 150.535156 151.429688 151.382812 151.429688 Z M 151.382812 116.96875 C 151.949219 116.96875 152.507812 117.023438 153.0625 117.136719 C 153.617188 117.246094 154.15625 117.410156 154.675781 117.625 C 155.199219 117.839844 155.695312 118.105469 156.167969 118.421875 C 156.636719 118.734375 157.070312 119.09375 157.472656 119.492188 C 157.871094 119.894531 158.226562 120.328125 158.542969 120.796875 C 158.855469 121.269531 159.121094 121.765625 159.339844 122.289062 C 159.554688 122.808594 159.71875 123.347656 159.828125 123.902344 C 159.9375 124.457031 159.992188 125.019531 159.992188 125.585938 C 159.992188 126.148438 159.9375 126.710938 159.828125 127.265625 C 159.71875 127.820312 159.554688 128.359375 159.339844 128.882812 C 159.121094 129.402344 158.855469 129.898438 158.542969 130.371094 C 158.226562 130.839844 157.871094 131.277344 157.472656 131.675781 C 157.070312 132.074219 156.636719 132.433594 156.167969 132.746094 C 155.695312 133.0625 155.199219 133.328125 154.675781 133.542969 C 154.15625 133.761719 153.617188 133.921875 153.0625 134.035156 C 152.507812 134.144531 151.949219 134.199219 151.382812 134.199219 C 150.816406 134.199219 150.257812 134.144531 149.703125 134.035156 C 149.148438 133.921875 148.609375 133.761719 148.085938 133.542969 C 147.5625 133.328125 147.066406 133.0625 146.597656 132.746094 C 146.128906 132.433594 145.691406 132.074219 145.292969 131.675781 C 144.894531 131.277344 144.535156 130.839844 144.222656 130.371094 C 143.90625 129.898438 143.640625 129.402344 143.425781 128.882812 C 143.210938 128.359375 143.046875 127.820312 142.9375 127.265625 C 142.824219 126.710938 142.769531 126.148438 142.769531 125.585938 C 142.769531 125.019531 142.828125 124.457031 142.9375 123.902344 C 143.046875 123.347656 143.210938 122.8125 143.425781 122.289062 C 143.644531 121.765625 143.910156 121.269531 144.222656 120.800781 C 144.539062 120.328125 144.894531 119.894531 145.292969 119.496094 C 145.695312 119.09375 146.128906 118.738281 146.597656 118.421875 C 147.070312 118.109375 147.566406 117.84375 148.085938 117.625 C 148.609375 117.410156 149.148438 117.246094 149.703125 117.136719 C 150.257812 117.023438 150.816406 116.96875 151.382812 116.96875 Z M 151.382812 116.96875 " fill-opacity="1" fill-rule="nonzero"></path><path fill="#ffb400" d="M 220.273438 151.429688 C 221.121094 151.429688 221.964844 151.386719 222.808594 151.304688 C 223.648438 151.222656 224.484375 151.097656 225.316406 150.933594 C 226.144531 150.765625 226.964844 150.5625 227.773438 150.316406 C 228.585938 150.070312 229.378906 149.785156 230.160156 149.460938 C 230.941406 149.136719 231.707031 148.777344 232.453125 148.378906 C 233.199219 147.976562 233.925781 147.542969 234.628906 147.074219 C 235.332031 146.601562 236.011719 146.097656 236.664062 145.5625 C 237.320312 145.027344 237.945312 144.457031 238.542969 143.859375 C 239.140625 143.261719 239.707031 142.632812 240.246094 141.980469 C 240.78125 141.324219 241.285156 140.648438 241.753906 139.941406 C 242.226562 139.238281 242.660156 138.515625 243.058594 137.765625 C 243.457031 137.019531 243.820312 136.257812 244.144531 135.472656 C 244.46875 134.691406 244.75 133.898438 244.996094 133.085938 C 245.242188 132.277344 245.449219 131.457031 245.613281 130.625 C 245.777344 129.796875 245.902344 128.960938 245.984375 128.117188 C 246.066406 127.273438 246.109375 126.429688 246.109375 125.585938 C 246.109375 124.738281 246.066406 123.894531 245.984375 123.050781 C 245.902344 122.207031 245.777344 121.371094 245.613281 120.542969 C 245.449219 119.710938 245.242188 118.890625 244.996094 118.082031 C 244.75 117.273438 244.46875 116.476562 244.144531 115.695312 C 243.820312 114.910156 243.457031 114.148438 243.058594 113.402344 C 242.660156 112.65625 242.226562 111.929688 241.753906 111.226562 C 241.285156 110.523438 240.78125 109.84375 240.246094 109.1875 C 239.707031 108.535156 239.140625 107.90625 238.542969 107.308594 C 237.945312 106.710938 237.320312 106.144531 236.664062 105.605469 C 236.011719 105.070312 235.332031 104.566406 234.628906 104.09375 C 233.925781 103.625 233.199219 103.191406 232.453125 102.792969 C 231.707031 102.390625 230.941406 102.03125 230.160156 101.707031 C 229.378906 101.382812 228.585938 101.097656 227.773438 100.851562 C 226.964844 100.605469 226.144531 100.402344 225.316406 100.234375 C 224.484375 100.070312 223.648438 99.945312 222.808594 99.863281 C 221.964844 99.78125 221.121094 99.738281 220.273438 99.738281 C 219.429688 99.738281 218.585938 99.78125 217.742188 99.863281 C 216.902344 99.945312 216.066406 100.070312 215.234375 100.234375 C 214.40625 100.402344 213.585938 100.605469 212.777344 100.851562 C 211.964844 101.097656 211.171875 101.382812 210.386719 101.707031 C 209.605469 102.03125 208.84375 102.390625 208.097656 102.792969 C 207.351562 103.191406 206.625 103.625 205.921875 104.09375 C 205.21875 104.566406 204.539062 105.070312 203.886719 105.605469 C 203.230469 106.144531 202.605469 106.710938 202.007812 107.308594 C 201.410156 107.90625 200.839844 108.535156 200.304688 109.1875 C 199.769531 109.84375 199.265625 110.523438 198.792969 111.226562 C 198.324219 111.929688 197.890625 112.65625 197.492188 113.402344 C 197.09375 114.148438 196.730469 114.910156 196.40625 115.695312 C 196.082031 116.476562 195.796875 117.273438 195.550781 118.082031 C 195.308594 118.890625 195.101562 119.710938 194.9375 120.542969 C 194.773438 121.371094 194.648438 122.207031 194.566406 123.050781 C 194.480469 123.894531 194.441406 124.738281 194.441406 125.585938 C 194.441406 126.429688 194.484375 127.273438 194.566406 128.117188 C 194.652344 128.957031 194.777344 129.792969 194.941406 130.625 C 195.105469 131.453125 195.3125 132.273438 195.558594 133.082031 C 195.804688 133.894531 196.089844 134.6875 196.414062 135.46875 C 196.738281 136.25 197.101562 137.015625 197.5 137.761719 C 197.898438 138.507812 198.332031 139.234375 198.804688 139.9375 C 199.273438 140.640625 199.777344 141.316406 200.3125 141.972656 C 200.851562 142.625 201.417969 143.253906 202.015625 143.851562 C 202.613281 144.449219 203.238281 145.015625 203.894531 145.554688 C 204.546875 146.089844 205.226562 146.59375 205.929688 147.066406 C 206.632812 147.535156 207.355469 147.96875 208.101562 148.367188 C 208.847656 148.769531 209.613281 149.128906 210.394531 149.453125 C 211.175781 149.777344 211.96875 150.0625 212.777344 150.308594 C 213.589844 150.554688 214.40625 150.761719 215.238281 150.925781 C 216.066406 151.09375 216.902344 151.21875 217.742188 151.300781 C 218.585938 151.386719 219.429688 151.429688 220.273438 151.429688 Z M 220.273438 116.96875 C 220.839844 116.96875 221.398438 117.023438 221.953125 117.136719 C 222.507812 117.246094 223.046875 117.410156 223.570312 117.625 C 224.09375 117.839844 224.589844 118.105469 225.058594 118.421875 C 225.53125 118.734375 225.964844 119.09375 226.363281 119.492188 C 226.765625 119.894531 227.121094 120.328125 227.433594 120.796875 C 227.75 121.269531 228.015625 121.765625 228.230469 122.289062 C 228.449219 122.808594 228.609375 123.347656 228.722656 123.902344 C 228.832031 124.457031 228.886719 125.019531 228.886719 125.585938 C 228.886719 126.148438 228.832031 126.710938 228.722656 127.265625 C 228.609375 127.820312 228.449219 128.359375 228.230469 128.882812 C 228.015625 129.402344 227.75 129.898438 227.433594 130.371094 C 227.121094 130.839844 226.765625 131.277344 226.363281 131.675781 C 225.964844 132.074219 225.53125 132.433594 225.058594 132.746094 C 224.589844 133.0625 224.09375 133.328125 223.570312 133.542969 C 223.046875 133.761719 222.507812 133.921875 221.953125 134.035156 C 221.398438 134.144531 220.839844 134.199219 220.273438 134.199219 C 219.710938 134.199219 219.148438 134.144531 218.59375 134.035156 C 218.039062 133.921875 217.5 133.761719 216.980469 133.542969 C 216.457031 133.328125 215.960938 133.0625 215.492188 132.746094 C 215.019531 132.433594 214.585938 132.074219 214.1875 131.675781 C 213.785156 131.277344 213.429688 130.839844 213.113281 130.371094 C 212.800781 129.898438 212.535156 129.402344 212.320312 128.882812 C 212.101562 128.359375 211.9375 127.820312 211.828125 127.265625 C 211.71875 126.710938 211.664062 126.148438 211.664062 125.585938 C 211.664062 125.019531 211.71875 124.457031 211.828125 123.902344 C 211.941406 123.347656 212.105469 122.8125 212.320312 122.289062 C 212.535156 121.765625 212.800781 121.269531 213.117188 120.800781 C 213.429688 120.328125 213.789062 119.894531 214.1875 119.496094 C 214.585938 119.09375 215.023438 118.738281 215.492188 118.421875 C 215.960938 118.109375 216.457031 117.84375 216.980469 117.625 C 217.503906 117.410156 218.039062 117.246094 218.59375 117.136719 C 219.148438 117.023438 219.710938 116.96875 220.273438 116.96875 Z M 220.273438 116.96875 " fill-opacity="1" fill-rule="nonzero"></path><path fill="#ffb400" d="M 435.566406 134.199219 L 693.914062 134.199219 C 694.476562 134.199219 695.039062 134.144531 695.59375 134.035156 C 696.148438 133.921875 696.6875 133.761719 697.207031 133.542969 C 697.730469 133.328125 698.226562 133.0625 698.695312 132.746094 C 699.167969 132.433594 699.601562 132.074219 700.003906 131.675781 C 700.402344 131.277344 700.757812 130.839844 701.074219 130.371094 C 701.386719 129.898438 701.652344 129.402344 701.867188 128.882812 C 702.085938 128.359375 702.25 127.820312 702.359375 127.265625 C 702.46875 126.710938 702.523438 126.148438 702.523438 125.585938 C 702.523438 125.019531 702.46875 124.457031 702.359375 123.902344 C 702.25 123.347656 702.085938 122.808594 701.867188 122.289062 C 701.652344 121.765625 701.386719 121.269531 701.074219 120.796875 C 700.757812 120.328125 700.402344 119.894531 700.003906 119.492188 C 699.601562 119.09375 699.167969 118.734375 698.695312 118.421875 C 698.226562 118.105469 697.730469 117.839844 697.207031 117.625 C 696.6875 117.410156 696.148438 117.246094 695.59375 117.136719 C 695.039062 117.023438 694.476562 116.96875 693.914062 116.96875 L 435.566406 116.96875 C 435 116.96875 434.4375 117.023438 433.886719 117.136719 C 433.332031 117.246094 432.792969 117.410156 432.269531 117.625 C 431.746094 117.839844 431.25 118.105469 430.78125 118.421875 C 430.308594 118.734375 429.875 119.09375 429.476562 119.492188 C 429.074219 119.894531 428.71875 120.328125 428.40625 120.796875 C 428.089844 121.269531 427.824219 121.765625 427.609375 122.289062 C 427.390625 122.808594 427.230469 123.347656 427.117188 123.902344 C 427.007812 124.457031 426.953125 125.019531 426.953125 125.585938 C 426.953125 126.148438 427.007812 126.710938 427.117188 127.265625 C 427.230469 127.820312 427.390625 128.359375 427.609375 128.882812 C 427.824219 129.402344 428.089844 129.898438 428.40625 130.371094 C 428.71875 130.839844 429.074219 131.277344 429.476562 131.675781 C 429.875 132.074219 430.308594 132.433594 430.78125 132.746094 C 431.25 133.0625 431.746094 133.328125 432.269531 133.542969 C 432.792969 133.761719 433.332031 133.921875 433.886719 134.035156 C 434.4375 134.144531 435 134.199219 435.566406 134.199219 Z M 435.566406 134.199219 " fill-opacity="1" fill-rule="nonzero"></path><path fill="#ffb400" d="M 482.1875 418.488281 L 565.167969 335.480469 C 566.496094 334.152344 567.761719 332.761719 568.953125 331.308594 C 570.148438 329.859375 571.265625 328.351562 572.3125 326.789062 C 573.359375 325.230469 574.324219 323.621094 575.210938 321.960938 C 576.101562 320.304688 576.902344 318.609375 577.625 316.875 C 578.34375 315.136719 578.980469 313.371094 579.527344 311.570312 C 580.074219 309.773438 580.53125 307.953125 580.898438 306.109375 C 581.265625 304.265625 581.542969 302.410156 581.730469 300.539062 C 581.914062 298.667969 582.007812 296.792969 582.007812 294.914062 C 582.007812 293.035156 581.917969 291.160156 581.734375 289.289062 C 581.550781 287.417969 581.277344 285.558594 580.914062 283.714844 C 580.546875 281.871094 580.089844 280.050781 579.546875 278.253906 C 579 276.453125 578.371094 274.6875 577.652344 272.949219 C 576.933594 271.210938 576.132812 269.515625 575.246094 267.855469 C 574.359375 266.199219 573.394531 264.589844 572.351562 263.023438 C 571.308594 261.460938 570.191406 259.953125 569 258.5 C 567.808594 257.046875 566.546875 255.65625 565.21875 254.328125 C 563.890625 253 562.5 251.738281 561.046875 250.546875 C 559.59375 249.351562 558.085938 248.234375 556.523438 247.191406 C 554.960938 246.148438 553.351562 245.183594 551.695312 244.296875 C 550.035156 243.410156 548.339844 242.609375 546.605469 241.890625 C 544.867188 241.171875 543.101562 240.539062 541.300781 239.992188 C 539.503906 239.449219 537.683594 238.992188 535.839844 238.628906 C 533.996094 238.261719 532.140625 237.988281 530.269531 237.804688 C 528.402344 237.621094 526.527344 237.53125 524.648438 237.53125 C 522.769531 237.53125 520.894531 237.625 519.023438 237.8125 C 517.15625 237.996094 515.296875 238.273438 513.457031 238.640625 C 511.613281 239.011719 509.792969 239.46875 507.996094 240.015625 C 506.199219 240.5625 504.429688 241.195312 502.695312 241.917969 C 500.960938 242.636719 499.265625 243.441406 497.609375 244.328125 C 495.953125 245.21875 494.34375 246.183594 492.78125 247.230469 C 491.222656 248.277344 489.714844 249.398438 488.265625 250.589844 C 486.8125 251.785156 485.425781 253.046875 484.097656 254.378906 L 401.117188 337.390625 L 295.257812 231.488281 C 294.855469 231.085938 294.421875 230.730469 293.953125 230.414062 C 293.480469 230.101562 292.984375 229.835938 292.460938 229.617188 C 291.941406 229.402344 291.402344 229.238281 290.847656 229.128906 C 290.292969 229.019531 289.734375 228.964844 289.167969 228.964844 C 288.601562 228.964844 288.042969 229.019531 287.488281 229.128906 C 286.933594 229.238281 286.394531 229.402344 285.871094 229.617188 C 285.351562 229.835938 284.855469 230.101562 284.382812 230.414062 C 283.914062 230.730469 283.480469 231.085938 283.078125 231.488281 L 179.738281 334.863281 C 179.339844 335.265625 178.984375 335.699219 178.667969 336.171875 C 178.355469 336.640625 178.089844 337.136719 177.871094 337.660156 C 177.65625 338.183594 177.492188 338.722656 177.382812 339.277344 C 177.273438 339.832031 177.214844 340.390625 177.214844 340.957031 C 177.214844 341.523438 177.273438 342.082031 177.382812 342.636719 C 177.492188 343.191406 177.65625 343.730469 177.871094 344.253906 C 178.089844 344.773438 178.355469 345.273438 178.667969 345.742188 C 178.984375 346.210938 179.339844 346.648438 179.738281 347.046875 L 285.601562 452.949219 L 205.574219 533.007812 C 204.417969 534.277344 203.632812 535.742188 203.21875 537.40625 L 185.996094 623.554688 C 185.925781 623.902344 185.878906 624.25 185.851562 624.605469 C 185.828125 624.957031 185.820312 625.308594 185.839844 625.660156 C 185.855469 626.015625 185.894531 626.363281 185.953125 626.710938 C 186.015625 627.0625 186.097656 627.402344 186.199219 627.742188 C 186.300781 628.082031 186.421875 628.410156 186.566406 628.734375 C 186.710938 629.058594 186.871094 629.371094 187.054688 629.671875 C 187.234375 629.976562 187.433594 630.265625 187.652344 630.546875 C 187.867188 630.824219 188.101562 631.085938 188.351562 631.335938 C 188.601562 631.585938 188.863281 631.820312 189.144531 632.039062 C 189.421875 632.253906 189.710938 632.453125 190.015625 632.636719 C 190.320312 632.816406 190.632812 632.980469 190.953125 633.125 C 191.277344 633.265625 191.609375 633.390625 191.945312 633.492188 C 192.285156 633.59375 192.625 633.675781 192.972656 633.734375 C 193.324219 633.796875 193.671875 633.832031 194.027344 633.851562 C 194.378906 633.867188 194.730469 633.863281 195.082031 633.835938 C 195.433594 633.808594 195.785156 633.761719 196.128906 633.691406 L 282.246094 616.464844 C 283.910156 616.046875 285.375 615.261719 286.644531 614.109375 L 366.671875 534.050781 L 472.535156 639.953125 C 472.933594 640.351562 473.367188 640.710938 473.839844 641.023438 C 474.308594 641.339844 474.804688 641.601562 475.328125 641.820312 C 475.851562 642.035156 476.386719 642.199219 476.941406 642.308594 C 477.496094 642.421875 478.058594 642.476562 478.625 642.476562 C 479.1875 642.476562 479.75 642.421875 480.304688 642.308594 C 480.859375 642.199219 481.394531 642.035156 481.917969 641.820312 C 482.441406 641.601562 482.9375 641.339844 483.40625 641.023438 C 483.878906 640.710938 484.3125 640.351562 484.710938 639.953125 L 588.050781 536.574219 C 588.449219 536.171875 588.808594 535.738281 589.121094 535.269531 C 589.4375 534.796875 589.703125 534.300781 589.917969 533.78125 C 590.132812 533.257812 590.296875 532.71875 590.410156 532.164062 C 590.519531 531.609375 590.574219 531.046875 590.574219 530.484375 C 590.574219 529.917969 590.519531 529.355469 590.410156 528.800781 C 590.296875 528.246094 590.132812 527.707031 589.917969 527.1875 C 589.703125 526.664062 589.4375 526.167969 589.121094 525.695312 C 588.808594 525.226562 588.449219 524.792969 588.050781 524.390625 Z M 280.554688 595.835938 L 223.839844 539.097656 L 470.011719 292.832031 L 526.726562 349.570312 Z M 496.273438 266.558594 C 497.203125 265.625 498.171875 264.738281 499.1875 263.898438 C 500.203125 263.058594 501.257812 262.269531 502.347656 261.535156 C 503.441406 260.800781 504.566406 260.121094 505.726562 259.496094 C 506.886719 258.871094 508.074219 258.304688 509.289062 257.796875 C 510.503906 257.289062 511.738281 256.84375 513 256.457031 C 514.257812 256.070312 515.53125 255.746094 516.824219 255.488281 C 518.113281 255.226562 519.414062 255.03125 520.726562 254.898438 C 522.035156 254.765625 523.347656 254.699219 524.664062 254.695312 C 525.984375 254.695312 527.296875 254.757812 528.605469 254.882812 C 529.917969 255.011719 531.21875 255.199219 532.511719 255.457031 C 533.800781 255.710938 535.078125 256.027344 536.339844 256.410156 C 537.601562 256.789062 538.839844 257.234375 540.054688 257.734375 C 541.273438 258.238281 542.460938 258.800781 543.625 259.417969 C 544.785156 260.039062 545.914062 260.714844 547.007812 261.445312 C 548.105469 262.179688 549.160156 262.960938 550.179688 263.796875 C 551.199219 264.632812 552.171875 265.515625 553.101562 266.449219 C 554.035156 267.378906 554.917969 268.355469 555.753906 269.371094 C 556.585938 270.390625 557.371094 271.449219 558.101562 272.542969 C 558.832031 273.640625 559.507812 274.769531 560.128906 275.929688 C 560.746094 277.09375 561.308594 278.28125 561.8125 279.5 C 562.316406 280.71875 562.757812 281.957031 563.136719 283.21875 C 563.519531 284.480469 563.835938 285.753906 564.089844 287.046875 C 564.34375 288.339844 564.535156 289.640625 564.664062 290.953125 C 564.789062 292.265625 564.851562 293.578125 564.847656 294.894531 C 564.847656 296.214844 564.78125 297.527344 564.648438 298.835938 C 564.515625 300.148438 564.320312 301.449219 564.058594 302.742188 C 563.800781 304.03125 563.476562 305.308594 563.089844 306.566406 C 562.703125 307.828125 562.257812 309.0625 561.75 310.28125 C 561.242188 311.496094 560.675781 312.683594 560.054688 313.84375 C 559.429688 315.003906 558.75 316.128906 558.011719 317.222656 C 557.277344 318.3125 556.492188 319.367188 555.652344 320.382812 C 554.8125 321.398438 553.925781 322.371094 552.992188 323.296875 L 538.902344 337.390625 L 482.1875 280.652344 Z M 289.167969 249.757812 L 320.046875 280.652344 L 304.609375 296.097656 C 304.210938 296.5 303.859375 296.933594 303.550781 297.40625 C 303.238281 297.875 302.976562 298.371094 302.765625 298.890625 C 302.550781 299.414062 302.390625 299.949219 302.285156 300.503906 C 302.175781 301.054688 302.125 301.613281 302.125 302.179688 C 302.125 302.742188 302.183594 303.296875 302.292969 303.851562 C 302.40625 304.402344 302.570312 304.9375 302.785156 305.460938 C 303.003906 305.980469 303.265625 306.472656 303.578125 306.941406 C 303.894531 307.410156 304.25 307.84375 304.648438 308.242188 C 305.046875 308.640625 305.476562 308.996094 305.945312 309.308594 C 306.414062 309.621094 306.90625 309.886719 307.429688 310.101562 C 307.949219 310.320312 308.484375 310.484375 309.035156 310.59375 C 309.585938 310.707031 310.144531 310.761719 310.707031 310.765625 C 311.269531 310.765625 311.828125 310.710938 312.382812 310.605469 C 312.933594 310.496094 313.472656 310.335938 313.992188 310.125 C 314.515625 309.910156 315.007812 309.648438 315.480469 309.339844 C 315.949219 309.027344 316.382812 308.675781 316.785156 308.28125 L 332.226562 292.832031 L 354.496094 315.109375 L 339.054688 330.558594 C 338.660156 330.957031 338.304688 331.394531 337.996094 331.863281 C 337.683594 332.335938 337.421875 332.828125 337.210938 333.351562 C 336.996094 333.871094 336.835938 334.410156 336.730469 334.964844 C 336.621094 335.515625 336.566406 336.074219 336.570312 336.636719 C 336.570312 337.199219 336.628906 337.757812 336.738281 338.3125 C 336.851562 338.863281 337.015625 339.398438 337.230469 339.917969 C 337.445312 340.441406 337.710938 340.933594 338.023438 341.402344 C 338.339844 341.871094 338.695312 342.304688 339.09375 342.703125 C 339.492188 343.101562 339.921875 343.457031 340.390625 343.769531 C 340.859375 344.082031 341.351562 344.347656 341.875 344.5625 C 342.394531 344.78125 342.929688 344.945312 343.480469 345.054688 C 344.035156 345.167969 344.589844 345.222656 345.152344 345.226562 C 345.71875 345.226562 346.273438 345.171875 346.828125 345.066406 C 347.378906 344.957031 347.917969 344.796875 348.4375 344.585938 C 348.960938 344.371094 349.457031 344.109375 349.925781 343.796875 C 350.394531 343.488281 350.832031 343.136719 351.230469 342.738281 L 366.671875 327.292969 L 388.941406 349.570312 L 323.613281 414.921875 L 223.839844 315.109375 Z M 198.007812 340.957031 L 211.664062 327.292969 L 311.4375 427.105469 L 297.78125 440.765625 Z M 216.949219 556.570312 L 263.09375 602.726562 L 205.414062 614.265625 Z M 478.621094 621.679688 L 378.847656 521.867188 L 392.507812 508.207031 L 492.28125 608.015625 Z M 504.457031 595.835938 L 404.683594 496.023438 L 470.011719 430.671875 L 492.28125 452.949219 L 476.839844 468.394531 C 476.445312 468.796875 476.089844 469.230469 475.78125 469.703125 C 475.472656 470.171875 475.210938 470.667969 474.996094 471.1875 C 474.785156 471.710938 474.625 472.246094 474.515625 472.800781 C 474.40625 473.355469 474.355469 473.910156 474.355469 474.476562 C 474.359375 475.039062 474.414062 475.597656 474.527344 476.148438 C 474.636719 476.699219 474.800781 477.238281 475.019531 477.757812 C 475.234375 478.277344 475.5 478.769531 475.8125 479.238281 C 476.125 479.707031 476.480469 480.140625 476.878906 480.539062 C 477.277344 480.9375 477.710938 481.292969 478.179688 481.605469 C 478.644531 481.917969 479.140625 482.183594 479.660156 482.398438 C 480.179688 482.617188 480.714844 482.78125 481.265625 482.890625 C 481.820312 483.003906 482.378906 483.058594 482.941406 483.0625 C 483.503906 483.0625 484.0625 483.011719 484.613281 482.902344 C 485.167969 482.792969 485.703125 482.632812 486.222656 482.421875 C 486.746094 482.207031 487.242188 481.945312 487.710938 481.636719 C 488.179688 481.324219 488.617188 480.972656 489.015625 480.578125 L 504.457031 465.132812 L 526.726562 487.410156 L 511.285156 502.855469 C 510.890625 503.257812 510.539062 503.691406 510.226562 504.160156 C 509.917969 504.632812 509.65625 505.128906 509.441406 505.648438 C 509.230469 506.171875 509.070312 506.707031 508.960938 507.261719 C 508.851562 507.8125 508.800781 508.371094 508.800781 508.933594 C 508.804688 509.5 508.859375 510.054688 508.972656 510.609375 C 509.082031 511.160156 509.246094 511.695312 509.460938 512.21875 C 509.679688 512.738281 509.945312 513.230469 510.257812 513.699219 C 510.570312 514.167969 510.925781 514.601562 511.324219 515 C 511.722656 515.398438 512.15625 515.753906 512.625 516.066406 C 513.089844 516.378906 513.585938 516.644531 514.105469 516.863281 C 514.625 517.078125 515.160156 517.242188 515.714844 517.351562 C 516.265625 517.464844 516.824219 517.519531 517.386719 517.523438 C 517.949219 517.523438 518.507812 517.472656 519.058594 517.363281 C 519.613281 517.253906 520.148438 517.09375 520.671875 516.882812 C 521.191406 516.667969 521.6875 516.40625 522.15625 516.097656 C 522.628906 515.785156 523.0625 515.433594 523.464844 515.035156 L 538.902344 499.589844 L 569.785156 530.484375 Z M 504.457031 595.835938 " fill-opacity="1" fill-rule="nonzero"></path>
</svg>